<svg width="326" height="156" viewBox="0 0 326 156" fill="none" xmlns="http://www.w3.org/2000/svg">
<rect y="16" width="326" height="139.973" rx="18" fill="#0AA1DD"/>
<rect width="278" height="0.0001" transform="translate(24 40)" fill="#0AA1DD"/>
<path d="M261.368 29.9832C263.087 28.0112 264.437 26.1737 265.419 24.4706C266.4 22.7675 266.891 21.3781 266.891 20.3025C266.891 19.6751 266.687 19.0924 266.278 18.5546C265.95 18.0168 265.419 17.4342 264.682 16.8067C263.537 15.8207 262.636 14.7899 261.982 13.7143C261.327 12.6387 261 11.2045 261 9.41176C261 6.63305 261.777 4.39215 263.332 2.68907C264.887 0.896359 266.85 0 269.223 0C271.76 0 273.806 0.896359 275.36 2.68907C276.997 4.39215 277.815 6.63305 277.815 9.41176C277.815 12.9076 276.465 16.7619 273.765 20.9748C271.146 25.098 267.628 28.7731 263.209 32L261.368 29.9832ZM285.179 29.9832C286.897 28.0112 288.247 26.1737 289.229 24.4706C290.211 22.7675 290.702 21.3781 290.702 20.3025C290.702 19.6751 290.498 19.0924 290.089 18.5546C289.761 18.0168 289.229 17.4342 288.493 16.8067C287.347 15.8207 286.447 14.7899 285.793 13.7143C285.138 12.6387 284.811 11.2045 284.811 9.41176C284.811 6.63305 285.588 4.39215 287.143 2.68907C288.698 0.896359 290.661 0 293.034 0C295.571 0 297.616 0.896359 299.171 2.68907C300.808 4.39215 301.626 6.63305 301.626 9.41176C301.626 12.9076 300.276 16.7619 297.575 20.9748C294.957 25.098 291.439 28.7731 287.02 32L285.179 29.9832Z" fill="#2155CD"/>
<g clip-path="url(#clip0_2_3114)">
<g clip-path="url(#clip1_2_3114)">
<path d="M42.3438 46.2123H37.4894C36.678 46.2117 35.8905 46.4876 35.2568 46.9944C34.6231 47.5012 34.181 48.2087 34.0031 49.0004C33.8249 48.2089 33.3826 47.5016 32.749 46.9949C32.1154 46.4882 31.3282 46.2122 30.5169 46.2123H25.6663C25.2242 46.2124 24.8004 46.3881 24.4878 46.7007C24.1752 47.0132 23.9996 47.4371 23.9994 47.8792V56.4142C23.9996 56.8562 24.1752 57.2801 24.4878 57.5926C24.8004 57.9052 25.2242 58.0809 25.6663 58.081H28.7806C32.3294 58.081 33.3881 58.9279 33.895 60.6854C33.9194 60.7829 34.0756 60.7829 34.1031 60.6854C34.6138 58.9285 35.6725 58.081 39.2175 58.081H42.3319C42.7739 58.0809 43.1978 57.9052 43.5104 57.5926C43.8229 57.2801 43.9986 56.8562 43.9988 56.4142V47.8829C43.9988 47.4424 43.8247 47.0197 43.5145 46.7069C43.2043 46.3941 42.783 46.2165 42.3425 46.2129L42.3438 46.2123ZM32.4025 55.4273C32.4027 55.4432 32.3997 55.4591 32.3936 55.4739C32.3876 55.4887 32.3787 55.5021 32.3674 55.5134C32.3561 55.5247 32.3426 55.5336 32.3279 55.5396C32.3131 55.5457 32.2972 55.5487 32.2813 55.5485H26.715C26.6991 55.5486 26.6833 55.5455 26.6685 55.5395C26.6538 55.5334 26.6404 55.5245 26.6291 55.5132C26.6178 55.5019 26.6089 55.4885 26.6028 55.4738C26.5968 55.459 26.5937 55.4432 26.5938 55.4273V54.6323C26.5938 54.5667 26.6456 54.511 26.715 54.511H32.2844C32.35 54.511 32.4056 54.5629 32.4056 54.6323V55.4273H32.4025ZM32.4025 53.3129C32.4026 53.3289 32.3995 53.3447 32.3935 53.3594C32.3874 53.3742 32.3785 53.3876 32.3672 53.3988C32.3559 53.4101 32.3425 53.419 32.3278 53.4251C32.313 53.4312 32.2972 53.4342 32.2813 53.4342H26.715C26.6991 53.4342 26.6833 53.4312 26.6685 53.4251C26.6538 53.419 26.6404 53.4101 26.6291 53.3988C26.6178 53.3876 26.6089 53.3742 26.6028 53.3594C26.5968 53.3447 26.5937 53.3289 26.5938 53.3129V52.5179C26.5938 52.4517 26.6456 52.3967 26.715 52.3967H32.2844C32.35 52.3967 32.4056 52.4485 32.4056 52.5179V53.3129H32.4025ZM32.4025 51.1985C32.4026 51.2145 32.3995 51.2303 32.3935 51.245C32.3874 51.2598 32.3785 51.2732 32.3672 51.2845C32.3559 51.2957 32.3425 51.3047 32.3278 51.3107C32.313 51.3168 32.2972 51.3199 32.2813 51.3198H26.715C26.6991 51.3199 26.6833 51.3168 26.6685 51.3107C26.6538 51.3047 26.6404 51.2957 26.6291 51.2845C26.6178 51.2732 26.6089 51.2598 26.6028 51.245C26.5968 51.2303 26.5937 51.2145 26.5938 51.1985V50.4035C26.5938 50.3379 26.6456 50.2823 26.715 50.2823H32.2844C32.35 50.2823 32.4056 50.3342 32.4056 50.4035V51.1985H32.4025ZM41.4063 55.4242C41.4063 55.4401 41.4033 55.4559 41.3972 55.4707C41.3911 55.4854 41.3822 55.4988 41.3709 55.5101C41.3597 55.5214 41.3463 55.5303 41.3315 55.5363C41.3168 55.5424 41.301 55.5455 41.285 55.5454H35.7188C35.7028 55.5455 35.687 55.5424 35.6723 55.5363C35.6575 55.5303 35.6441 55.5214 35.6328 55.5101C35.6216 55.4988 35.6126 55.4854 35.6066 55.4707C35.6005 55.4559 35.5974 55.4401 35.5975 55.4242V54.6292C35.5975 54.5635 35.6494 54.5079 35.7188 54.5079H41.2881C41.3544 54.5079 41.4094 54.5598 41.4094 54.6292V55.4242H41.4063ZM41.4063 53.3098C41.4064 53.3257 41.4034 53.3416 41.3974 53.3564C41.3913 53.3712 41.3824 53.3846 41.3711 53.3959C41.3598 53.4072 41.3464 53.4161 41.3316 53.4221C41.3168 53.4282 41.301 53.4312 41.285 53.431H35.7188C35.7028 53.4311 35.687 53.428 35.6723 53.422C35.6575 53.4159 35.6441 53.407 35.6328 53.3957C35.6216 53.3844 35.6126 53.371 35.6066 53.3563C35.6005 53.3415 35.5974 53.3257 35.5975 53.3098V52.5148C35.5975 52.4492 35.6494 52.3935 35.7188 52.3935H41.2881C41.3544 52.3935 41.4094 52.4454 41.4094 52.5148V53.3098H41.4063ZM41.4063 51.1948C41.4063 51.2107 41.4033 51.2265 41.3972 51.2413C41.3911 51.256 41.3822 51.2694 41.3709 51.2807C41.3597 51.292 41.3463 51.3009 41.3315 51.307C41.3168 51.313 41.301 51.3161 41.285 51.316H35.7188C35.7028 51.3161 35.687 51.313 35.6723 51.307C35.6575 51.3009 35.6441 51.292 35.6328 51.2807C35.6216 51.2694 35.6126 51.256 35.6066 51.2413C35.6005 51.2265 35.5974 51.2107 35.5975 51.1948V50.4029C35.5975 50.3373 35.6494 50.2817 35.7188 50.2817H41.2881C41.3544 50.2817 41.4094 50.3335 41.4094 50.4029V51.1948H41.4063Z" fill="#0AA1DD"/>
</g>
<path d="M63.62 48.7146V58.4866H61.66V52.1306L59.042 58.4866H57.558L54.926 52.1306V58.4866H52.966V48.7146H55.192L58.3 55.9806L61.408 48.7146H63.62ZM68.9668 58.6126C68.2201 58.6126 67.5481 58.4493 66.9508 58.1226C66.3535 57.7866 65.8821 57.3153 65.5368 56.7086C65.2008 56.102 65.0328 55.402 65.0328 54.6086C65.0328 53.8153 65.2055 53.1153 65.5508 52.5086C65.9055 51.902 66.3861 51.4353 66.9928 51.1086C67.5995 50.7726 68.2761 50.6046 69.0228 50.6046C69.7695 50.6046 70.4461 50.7726 71.0528 51.1086C71.6595 51.4353 72.1355 51.902 72.4808 52.5086C72.8355 53.1153 73.0128 53.8153 73.0128 54.6086C73.0128 55.402 72.8308 56.102 72.4668 56.7086C72.1121 57.3153 71.6268 57.7866 71.0108 58.1226C70.4041 58.4493 69.7228 58.6126 68.9668 58.6126ZM68.9668 56.9046C69.3215 56.9046 69.6528 56.8206 69.9608 56.6526C70.2781 56.4753 70.5301 56.214 70.7168 55.8686C70.9035 55.5233 70.9968 55.1033 70.9968 54.6086C70.9968 53.8713 70.8008 53.3066 70.4088 52.9146C70.0261 52.5133 69.5548 52.3126 68.9948 52.3126C68.4348 52.3126 67.9635 52.5133 67.5808 52.9146C67.2075 53.3066 67.0208 53.8713 67.0208 54.6086C67.0208 55.346 67.2028 55.9153 67.5668 56.3166C67.9401 56.7086 68.4068 56.9046 68.9668 56.9046ZM76.6975 52.3406V56.0926C76.6975 56.354 76.7582 56.5453 76.8795 56.6666C77.0102 56.7786 77.2249 56.8346 77.5235 56.8346H78.4335V58.4866H77.2015C75.5495 58.4866 74.7235 57.684 74.7235 56.0786V52.3406H73.7995V50.7306H74.7235V48.8126H76.6975V50.7306H78.4335V52.3406H76.6975ZM80.8023 49.8066C80.4569 49.8066 80.1676 49.6993 79.9343 49.4846C79.7103 49.2606 79.5983 48.9853 79.5983 48.6586C79.5983 48.332 79.7103 48.0613 79.9343 47.8466C80.1676 47.6226 80.4569 47.5106 80.8023 47.5106C81.1476 47.5106 81.4323 47.6226 81.6563 47.8466C81.8896 48.0613 82.0063 48.332 82.0063 48.6586C82.0063 48.9853 81.8896 49.2606 81.6563 49.4846C81.4323 49.6993 81.1476 49.8066 80.8023 49.8066ZM81.7683 50.7306V58.4866H79.8083V50.7306H81.7683ZM86.9037 56.6806L88.8637 50.7306H90.9497L88.0797 58.4866H85.6997L82.8437 50.7306H84.9437L86.9037 56.6806ZM91.5116 54.5806C91.5116 53.7966 91.6656 53.1013 91.9736 52.4946C92.2909 51.888 92.7156 51.4213 93.2476 51.0946C93.7889 50.768 94.3909 50.6046 95.0536 50.6046C95.6323 50.6046 96.1363 50.7213 96.5656 50.9546C97.0043 51.188 97.3543 51.482 97.6156 51.8366V50.7306H99.5896V58.4866H97.6156V57.3526C97.3636 57.7166 97.0136 58.02 96.5656 58.2626C96.1269 58.496 95.6183 58.6126 95.0396 58.6126C94.3863 58.6126 93.7889 58.4446 93.2476 58.1086C92.7156 57.7726 92.2909 57.3013 91.9736 56.6946C91.6656 56.0786 91.5116 55.374 91.5116 54.5806ZM97.6156 54.6086C97.6156 54.1326 97.5223 53.7266 97.3356 53.3906C97.1489 53.0453 96.8969 52.784 96.5796 52.6066C96.2623 52.42 95.9216 52.3266 95.5576 52.3266C95.1936 52.3266 94.8576 52.4153 94.5496 52.5926C94.2416 52.77 93.9896 53.0313 93.7936 53.3766C93.6069 53.7126 93.5136 54.114 93.5136 54.5806C93.5136 55.0473 93.6069 55.458 93.7936 55.8126C93.9896 56.158 94.2416 56.424 94.5496 56.6106C94.8669 56.7973 95.2029 56.8906 95.5576 56.8906C95.9216 56.8906 96.2623 56.802 96.5796 56.6246C96.8969 56.438 97.1489 56.1766 97.3356 55.8406C97.5223 55.4953 97.6156 55.0846 97.6156 54.6086ZM104.437 58.6126C103.802 58.6126 103.233 58.5006 102.729 58.2766C102.225 58.0433 101.824 57.7306 101.525 57.3386C101.236 56.9466 101.077 56.5126 101.049 56.0366H103.023C103.06 56.3353 103.205 56.5826 103.457 56.7786C103.718 56.9746 104.04 57.0726 104.423 57.0726C104.796 57.0726 105.086 56.998 105.291 56.8486C105.506 56.6993 105.613 56.508 105.613 56.2746C105.613 56.0226 105.482 55.836 105.221 55.7146C104.969 55.584 104.563 55.444 104.003 55.2946C103.424 55.1546 102.948 55.01 102.575 54.8606C102.211 54.7113 101.894 54.4826 101.623 54.1746C101.362 53.8666 101.231 53.4513 101.231 52.9286C101.231 52.4993 101.352 52.1073 101.595 51.7526C101.847 51.398 102.202 51.118 102.659 50.9126C103.126 50.7073 103.672 50.6046 104.297 50.6046C105.221 50.6046 105.958 50.838 106.509 51.3046C107.06 51.762 107.363 52.3826 107.419 53.1666H105.543C105.515 52.8586 105.384 52.616 105.151 52.4386C104.927 52.252 104.624 52.1586 104.241 52.1586C103.886 52.1586 103.611 52.224 103.415 52.3546C103.228 52.4853 103.135 52.6673 103.135 52.9006C103.135 53.162 103.266 53.3626 103.527 53.5026C103.788 53.6333 104.194 53.7686 104.745 53.9086C105.305 54.0486 105.767 54.1933 106.131 54.3426C106.495 54.492 106.808 54.7253 107.069 55.0426C107.34 55.3506 107.48 55.7613 107.489 56.2746C107.489 56.7226 107.363 57.124 107.111 57.4786C106.868 57.8333 106.514 58.1133 106.047 58.3186C105.59 58.5146 105.053 58.6126 104.437 58.6126ZM110.057 49.8066C109.711 49.8066 109.422 49.6993 109.189 49.4846C108.965 49.2606 108.853 48.9853 108.853 48.6586C108.853 48.332 108.965 48.0613 109.189 47.8466C109.422 47.6226 109.711 47.5106 110.057 47.5106C110.402 47.5106 110.687 47.6226 110.911 47.8466C111.144 48.0613 111.261 48.332 111.261 48.6586C111.261 48.9853 111.144 49.2606 110.911 49.4846C110.687 49.6993 110.402 49.8066 110.057 49.8066ZM111.023 50.7306V58.4866H109.063V50.7306H111.023Z" fill="#0AA1DD"/>
</g>
<path d="M27.576 89.0571C27.024 89.0571 26.528 88.9611 26.088 88.7691C25.656 88.5691 25.316 88.2971 25.068 87.9531C24.82 87.6011 24.692 87.1971 24.684 86.7411H25.848C25.888 87.1331 26.048 87.4651 26.328 87.7371C26.616 88.0011 27.032 88.1331 27.576 88.1331C28.096 88.1331 28.504 88.0051 28.8 87.7491C29.104 87.4851 29.256 87.1491 29.256 86.7411C29.256 86.4211 29.168 86.1611 28.992 85.9611C28.816 85.7611 28.596 85.6091 28.332 85.5051C28.068 85.4011 27.712 85.2891 27.264 85.1691C26.712 85.0251 26.268 84.8811 25.932 84.7371C25.604 84.5931 25.32 84.3691 25.08 84.0651C24.848 83.7531 24.732 83.3371 24.732 82.8171C24.732 82.3611 24.848 81.9571 25.08 81.6051C25.312 81.2531 25.636 80.9811 26.052 80.7891C26.476 80.5971 26.96 80.5011 27.504 80.5011C28.288 80.5011 28.928 80.6971 29.424 81.0891C29.928 81.4811 30.212 82.0011 30.276 82.6491H29.076C29.036 82.3291 28.868 82.0491 28.572 81.8091C28.276 81.5611 27.884 81.4371 27.396 81.4371C26.94 81.4371 26.568 81.5571 26.28 81.7971C25.992 82.0291 25.848 82.3571 25.848 82.7811C25.848 83.0851 25.932 83.3331 26.1 83.5251C26.276 83.7171 26.488 83.8651 26.736 83.9691C26.992 84.0651 27.348 84.1771 27.804 84.3051C28.356 84.4571 28.8 84.6091 29.136 84.7611C29.472 84.9051 29.76 85.1331 30 85.4451C30.24 85.7491 30.36 86.1651 30.36 86.6931C30.36 87.1011 30.252 87.4851 30.036 87.8451C29.82 88.2051 29.5 88.4971 29.076 88.7211C28.652 88.9451 28.152 89.0571 27.576 89.0571ZM37.949 85.4331C37.949 85.6411 37.937 85.8611 37.913 86.0931H32.657C32.697 86.7411 32.917 87.2491 33.317 87.6171C33.725 87.9771 34.217 88.1571 34.793 88.1571C35.265 88.1571 35.657 88.0491 35.969 87.8331C36.289 87.6091 36.513 87.3131 36.641 86.9451H37.817C37.641 87.5771 37.289 88.0931 36.761 88.4931C36.233 88.8851 35.577 89.0811 34.793 89.0811C34.169 89.0811 33.609 88.9411 33.113 88.6611C32.625 88.3811 32.241 87.9851 31.961 87.4731C31.681 86.9531 31.541 86.3531 31.541 85.6731C31.541 84.9931 31.677 84.3971 31.949 83.8851C32.221 83.3731 32.601 82.9811 33.089 82.7091C33.585 82.4291 34.153 82.2891 34.793 82.2891C35.417 82.2891 35.969 82.4251 36.449 82.6971C36.929 82.9691 37.297 83.3451 37.553 83.8251C37.817 84.2971 37.949 84.8331 37.949 85.4331ZM36.821 85.2051C36.821 84.7891 36.729 84.4331 36.545 84.1371C36.361 83.8331 36.109 83.6051 35.789 83.4531C35.477 83.2931 35.129 83.2131 34.745 83.2131C34.193 83.2131 33.721 83.3891 33.329 83.7411C32.945 84.0931 32.725 84.5811 32.669 85.2051H36.821ZM40.4644 83.6211C40.6884 83.2291 41.0164 82.9091 41.4484 82.6611C41.8804 82.4131 42.3724 82.2891 42.9244 82.2891C43.5164 82.2891 44.0484 82.4291 44.5204 82.7091C44.9924 82.9891 45.3644 83.3851 45.6364 83.8971C45.9084 84.4011 46.0444 84.9891 46.0444 85.6611C46.0444 86.3251 45.9084 86.9171 45.6364 87.4371C45.3644 87.9571 44.9884 88.3611 44.5084 88.6491C44.0364 88.9371 43.5084 89.0811 42.9244 89.0811C42.3564 89.0811 41.8564 88.9571 41.4244 88.7091C41.0004 88.4611 40.6804 88.1451 40.4644 87.7611V88.9731H39.3724V80.0931H40.4644V83.6211ZM44.9284 85.6611C44.9284 85.1651 44.8284 84.7331 44.6284 84.3651C44.4284 83.9971 44.1564 83.7171 43.8124 83.5251C43.4764 83.3331 43.1044 83.2371 42.6964 83.2371C42.2964 83.2371 41.9244 83.3371 41.5804 83.5371C41.2444 83.7291 40.9724 84.0131 40.7644 84.3891C40.5644 84.7571 40.4644 85.1851 40.4644 85.6731C40.4644 86.1691 40.5644 86.6051 40.7644 86.9811C40.9724 87.3491 41.2444 87.6331 41.5804 87.8331C41.9244 88.0251 42.2964 88.1211 42.6964 88.1211C43.1044 88.1211 43.4764 88.0251 43.8124 87.8331C44.1564 87.6331 44.4284 87.3491 44.6284 86.9811C44.8284 86.6051 44.9284 86.1651 44.9284 85.6611ZM47.0557 85.6611C47.0557 84.9891 47.1917 84.4011 47.4637 83.8971C47.7357 83.3851 48.1077 82.9891 48.5797 82.7091C49.0597 82.4291 49.5917 82.2891 50.1757 82.2891C50.7517 82.2891 51.2517 82.4131 51.6757 82.6611C52.0997 82.9091 52.4157 83.2211 52.6237 83.5971V82.3971H53.7277V88.9731H52.6237V87.7491C52.4077 88.1331 52.0837 88.4531 51.6517 88.7091C51.2277 88.9571 50.7317 89.0811 50.1637 89.0811C49.5797 89.0811 49.0517 88.9371 48.5797 88.6491C48.1077 88.3611 47.7357 87.9571 47.4637 87.4371C47.1917 86.9171 47.0557 86.3251 47.0557 85.6611ZM52.6237 85.6731C52.6237 85.1771 52.5237 84.7451 52.3237 84.3771C52.1237 84.0091 51.8517 83.7291 51.5077 83.5371C51.1717 83.3371 50.7997 83.2371 50.3917 83.2371C49.9837 83.2371 49.6117 83.3331 49.2757 83.5251C48.9397 83.7171 48.6717 83.9971 48.4717 84.3651C48.2717 84.7331 48.1717 85.1651 48.1717 85.6611C48.1717 86.1651 48.2717 86.6051 48.4717 86.9811C48.6717 87.3491 48.9397 87.6331 49.2757 87.8331C49.6117 88.0251 49.9837 88.1211 50.3917 88.1211C50.7997 88.1211 51.1717 88.0251 51.5077 87.8331C51.8517 87.6331 52.1237 87.3491 52.3237 86.9811C52.5237 86.6051 52.6237 86.1691 52.6237 85.6731ZM56.1191 81.3291C55.9111 81.3291 55.7351 81.2571 55.5911 81.1131C55.4471 80.9691 55.3751 80.7931 55.3751 80.5851C55.3751 80.3771 55.4471 80.2011 55.5911 80.0571C55.7351 79.9131 55.9111 79.8411 56.1191 79.8411C56.3191 79.8411 56.4871 79.9131 56.6231 80.0571C56.7671 80.2011 56.8391 80.3771 56.8391 80.5851C56.8391 80.7931 56.7671 80.9691 56.6231 81.1131C56.4871 81.2571 56.3191 81.3291 56.1191 81.3291ZM56.6471 82.3971V88.9731H55.5551V82.3971H56.6471ZM62.1622 88.9731L59.5822 86.0691V88.9731H58.4902V80.0931H59.5822V85.3131L62.1142 82.3971H63.6382L60.5422 85.6731L63.6502 88.9731H62.1622ZM72.3892 84.1131V85.0371H67.6012V84.1131H72.3892ZM78.6938 83.6211C78.9178 83.2291 79.2458 82.9091 79.6778 82.6611C80.1098 82.4131 80.6018 82.2891 81.1538 82.2891C81.7458 82.2891 82.2778 82.4291 82.7498 82.7091C83.2218 82.9891 83.5938 83.3851 83.8658 83.8971C84.1378 84.4011 84.2738 84.9891 84.2738 85.6611C84.2738 86.3251 84.1378 86.9171 83.8658 87.4371C83.5938 87.9571 83.2178 88.3611 82.7378 88.6491C82.2658 88.9371 81.7378 89.0811 81.1538 89.0811C80.5858 89.0811 80.0858 88.9571 79.6538 88.7091C79.2298 88.4611 78.9098 88.1451 78.6938 87.7611V88.9731H77.6018V80.0931H78.6938V83.6211ZM83.1578 85.6611C83.1578 85.1651 83.0578 84.7331 82.8578 84.3651C82.6578 83.9971 82.3858 83.7171 82.0418 83.5251C81.7058 83.3331 81.3338 83.2371 80.9258 83.2371C80.5258 83.2371 80.1538 83.3371 79.8098 83.5371C79.4738 83.7291 79.2018 84.0131 78.9938 84.3891C78.7938 84.7571 78.6938 85.1851 78.6938 85.6731C78.6938 86.1691 78.7938 86.6051 78.9938 86.9811C79.2018 87.3491 79.4738 87.6331 79.8098 87.8331C80.1538 88.0251 80.5258 88.1211 80.9258 88.1211C81.3338 88.1211 81.7058 88.0251 82.0418 87.8331C82.3858 87.6331 82.6578 87.3491 82.8578 86.9811C83.0578 86.6051 83.1578 86.1651 83.1578 85.6611ZM85.2852 85.6611C85.2852 84.9891 85.4212 84.4011 85.6932 83.8971C85.9652 83.3851 86.3372 82.9891 86.8092 82.7091C87.2892 82.4291 87.8212 82.2891 88.4052 82.2891C88.9812 82.2891 89.4812 82.4131 89.9052 82.6611C90.3292 82.9091 90.6452 83.2211 90.8532 83.5971V82.3971H91.9572V88.9731H90.8532V87.7491C90.6372 88.1331 90.3132 88.4531 89.8812 88.7091C89.4572 88.9571 88.9612 89.0811 88.3932 89.0811C87.8092 89.0811 87.2812 88.9371 86.8092 88.6491C86.3372 88.3611 85.9652 87.9571 85.6932 87.4371C85.4212 86.9171 85.2852 86.3251 85.2852 85.6611ZM90.8532 85.6731C90.8532 85.1771 90.7532 84.7451 90.5532 84.3771C90.3532 84.0091 90.0812 83.7291 89.7372 83.5371C89.4012 83.3371 89.0292 83.2371 88.6212 83.2371C88.2132 83.2371 87.8412 83.3331 87.5052 83.5251C87.1692 83.7171 86.9012 83.9971 86.7012 84.3651C86.5012 84.7331 86.4012 85.1651 86.4012 85.6611C86.4012 86.1651 86.5012 86.6051 86.7012 86.9811C86.9012 87.3491 87.1692 87.6331 87.5052 87.8331C87.8412 88.0251 88.2132 88.1211 88.6212 88.1211C89.0292 88.1211 89.4012 88.0251 89.7372 87.8331C90.0812 87.6331 90.3532 87.3491 90.5532 86.9811C90.7532 86.6051 90.8532 86.1691 90.8532 85.6731ZM94.3486 81.3291C94.1406 81.3291 93.9646 81.2571 93.8206 81.1131C93.6766 80.9691 93.6046 80.7931 93.6046 80.5851C93.6046 80.3771 93.6766 80.2011 93.8206 80.0571C93.9646 79.9131 94.1406 79.8411 94.3486 79.8411C94.5486 79.8411 94.7166 79.9131 94.8526 80.0571C94.9966 80.2011 95.0686 80.3771 95.0686 80.5851C95.0686 80.7931 94.9966 80.9691 94.8526 81.1131C94.7166 81.2571 94.5486 81.3291 94.3486 81.3291ZM94.8766 82.3971V88.9731H93.7846V82.3971H94.8766ZM100.392 88.9731L97.8117 86.0691V88.9731H96.7197V80.0931H97.8117V85.3131L100.344 82.3971H101.868L98.7717 85.6731L101.88 88.9731H100.392ZM113.967 82.2771C114.479 82.2771 114.935 82.3851 115.335 82.6011C115.735 82.8091 116.051 83.1251 116.283 83.5491C116.515 83.9731 116.631 84.4891 116.631 85.0971V88.9731H115.551V85.2531C115.551 84.5971 115.387 84.0971 115.059 83.7531C114.739 83.4011 114.303 83.2251 113.751 83.2251C113.183 83.2251 112.731 83.4091 112.395 83.7771C112.059 84.1371 111.891 84.6611 111.891 85.3491V88.9731H110.811V85.2531C110.811 84.5971 110.647 84.0971 110.319 83.7531C109.999 83.4011 109.563 83.2251 109.011 83.2251C108.443 83.2251 107.991 83.4091 107.655 83.7771C107.319 84.1371 107.151 84.6611 107.151 85.3491V88.9731H106.059V82.3971H107.151V83.3451C107.367 83.0011 107.655 82.7371 108.015 82.5531C108.383 82.3691 108.787 82.2771 109.227 82.2771C109.779 82.2771 110.267 82.4011 110.691 82.6491C111.115 82.8971 111.431 83.2611 111.639 83.7411C111.823 83.2771 112.127 82.9171 112.551 82.6611C112.975 82.4051 113.447 82.2771 113.967 82.2771ZM117.996 85.6611C117.996 84.9891 118.132 84.4011 118.404 83.8971C118.676 83.3851 119.048 82.9891 119.52 82.7091C120 82.4291 120.532 82.2891 121.116 82.2891C121.692 82.2891 122.192 82.4131 122.616 82.6611C123.04 82.9091 123.356 83.2211 123.564 83.5971V82.3971H124.668V88.9731H123.564V87.7491C123.348 88.1331 123.024 88.4531 122.592 88.7091C122.168 88.9571 121.672 89.0811 121.104 89.0811C120.52 89.0811 119.992 88.9371 119.52 88.6491C119.048 88.3611 118.676 87.9571 118.404 87.4371C118.132 86.9171 117.996 86.3251 117.996 85.6611ZM123.564 85.6731C123.564 85.1771 123.464 84.7451 123.264 84.3771C123.064 84.0091 122.792 83.7291 122.448 83.5371C122.112 83.3371 121.74 83.2371 121.332 83.2371C120.924 83.2371 120.552 83.3331 120.216 83.5251C119.88 83.7171 119.612 83.9971 119.412 84.3651C119.212 84.7331 119.112 85.1651 119.112 85.6611C119.112 86.1651 119.212 86.6051 119.412 86.9811C119.612 87.3491 119.88 87.6331 120.216 87.8331C120.552 88.0251 120.924 88.1211 121.332 88.1211C121.74 88.1211 122.112 88.0251 122.448 87.8331C122.792 87.6331 123.064 87.3491 123.264 86.9811C123.464 86.6051 123.564 86.1691 123.564 85.6731ZM129.699 82.2771C130.499 82.2771 131.147 82.5211 131.643 83.0091C132.139 83.4891 132.387 84.1851 132.387 85.0971V88.9731H131.307V85.2531C131.307 84.5971 131.143 84.0971 130.815 83.7531C130.487 83.4011 130.039 83.2251 129.471 83.2251C128.895 83.2251 128.435 83.4051 128.091 83.7651C127.755 84.1251 127.587 84.6491 127.587 85.3371V88.9731H126.495V82.3971H127.587V83.3331C127.803 82.9971 128.095 82.7371 128.463 82.5531C128.839 82.3691 129.251 82.2771 129.699 82.2771ZM139.985 82.3971V88.9731H138.893V88.0011C138.685 88.3371 138.393 88.6011 138.017 88.7931C137.649 88.9771 137.241 89.0691 136.793 89.0691C136.281 89.0691 135.821 88.9651 135.413 88.7571C135.005 88.5411 134.681 88.2211 134.441 87.7971C134.209 87.3731 134.093 86.8571 134.093 86.2491V82.3971H135.173V86.1051C135.173 86.7531 135.337 87.2531 135.665 87.6051C135.993 87.9491 136.441 88.1211 137.009 88.1211C137.593 88.1211 138.053 87.9411 138.389 87.5811C138.725 87.2211 138.893 86.6971 138.893 86.0091V82.3971H139.985ZM144.139 89.0811C143.635 89.0811 143.183 88.9971 142.783 88.8291C142.383 88.6531 142.067 88.4131 141.835 88.1091C141.603 87.7971 141.475 87.4411 141.451 87.0411H142.579C142.611 87.3691 142.763 87.6371 143.035 87.8451C143.315 88.0531 143.679 88.1571 144.127 88.1571C144.543 88.1571 144.871 88.0651 145.111 87.8811C145.351 87.6971 145.471 87.4651 145.471 87.1851C145.471 86.8971 145.343 86.6851 145.087 86.5491C144.831 86.4051 144.435 86.2651 143.899 86.1291C143.411 86.0011 143.011 85.8731 142.699 85.7451C142.395 85.6091 142.131 85.4131 141.907 85.1571C141.691 84.8931 141.583 84.5491 141.583 84.1251C141.583 83.7891 141.683 83.4811 141.883 83.2011C142.083 82.9211 142.367 82.7011 142.735 82.5411C143.103 82.3731 143.523 82.2891 143.995 82.2891C144.723 82.2891 145.311 82.4731 145.759 82.8411C146.207 83.2091 146.447 83.7131 146.479 84.3531H145.387C145.363 84.0091 145.223 83.7331 144.967 83.5251C144.719 83.3171 144.383 83.2131 143.959 83.2131C143.567 83.2131 143.255 83.2971 143.023 83.4651C142.791 83.6331 142.675 83.8531 142.675 84.1251C142.675 84.3411 142.743 84.5211 142.879 84.6651C143.023 84.8011 143.199 84.9131 143.407 85.0011C143.623 85.0811 143.919 85.1731 144.295 85.2771C144.767 85.4051 145.151 85.5331 145.447 85.6611C145.743 85.7811 145.995 85.9651 146.203 86.2131C146.419 86.4611 146.531 86.7851 146.539 87.1851C146.539 87.5451 146.439 87.8691 146.239 88.1571C146.039 88.4451 145.755 88.6731 145.387 88.8411C145.027 89.0011 144.611 89.0811 144.139 89.0811ZM148.626 81.3291C148.418 81.3291 148.242 81.2571 148.098 81.1131C147.954 80.9691 147.882 80.7931 147.882 80.5851C147.882 80.3771 147.954 80.2011 148.098 80.0571C148.242 79.9131 148.418 79.8411 148.626 79.8411C148.826 79.8411 148.994 79.9131 149.13 80.0571C149.274 80.2011 149.346 80.3771 149.346 80.5851C149.346 80.7931 149.274 80.9691 149.13 81.1131C148.994 81.2571 148.826 81.3291 148.626 81.3291ZM149.154 82.3971V88.9731H148.062V82.3971H149.154ZM150.59 85.6611C150.59 84.9891 150.726 84.4011 150.998 83.8971C151.27 83.3851 151.642 82.9891 152.114 82.7091C152.594 82.4291 153.126 82.2891 153.71 82.2891C154.286 82.2891 154.786 82.4131 155.21 82.6611C155.634 82.9091 155.95 83.2211 156.158 83.5971V82.3971H157.262V88.9731H156.158V87.7491C155.942 88.1331 155.618 88.4531 155.186 88.7091C154.762 88.9571 154.266 89.0811 153.698 89.0811C153.114 89.0811 152.586 88.9371 152.114 88.6491C151.642 88.3611 151.27 87.9571 150.998 87.4371C150.726 86.9171 150.59 86.3251 150.59 85.6611ZM156.158 85.6731C156.158 85.1771 156.058 84.7451 155.858 84.3771C155.658 84.0091 155.386 83.7291 155.042 83.5371C154.706 83.3371 154.334 83.2371 153.926 83.2371C153.518 83.2371 153.146 83.3331 152.81 83.5251C152.474 83.7171 152.206 83.9971 152.006 84.3651C151.806 84.7331 151.706 85.1651 151.706 85.6611C151.706 86.1651 151.806 86.6051 152.006 86.9811C152.206 87.3491 152.474 87.6331 152.81 87.8331C153.146 88.0251 153.518 88.1211 153.926 88.1211C154.334 88.1211 154.706 88.0251 155.042 87.8331C155.386 87.6331 155.658 87.3491 155.858 86.9811C156.058 86.6051 156.158 86.1691 156.158 85.6731ZM161.862 85.6611C161.862 84.9891 161.998 84.4011 162.27 83.8971C162.542 83.3851 162.914 82.9891 163.386 82.7091C163.866 82.4291 164.402 82.2891 164.994 82.2891C165.506 82.2891 165.982 82.4091 166.422 82.6491C166.862 82.8811 167.198 83.1891 167.43 83.5731V80.0931H168.534V88.9731L167.43 88.9731V87.7371C167.214 88.1291 166.894 88.4531 166.47 88.7091C166.046 88.9571 165.55 89.0811 164.982 89.0811C164.398 89.0811 163.866 88.9371 163.386 88.6491C162.914 88.3611 162.542 87.9571 162.27 87.4371C161.998 86.9171 161.862 86.3251 161.862 85.6611ZM167.43 85.6731C167.43 85.1771 167.33 84.7451 167.13 84.3771C166.93 84.0091 166.658 83.7291 166.314 83.5371C165.978 83.3371 165.606 83.2371 165.198 83.2371C164.79 83.2371 164.418 83.3331 164.082 83.5251C163.746 83.7171 163.478 83.9971 163.278 84.3651C163.078 84.7331 162.978 85.1651 162.978 85.6611C162.978 86.1651 163.078 86.6051 163.278 86.9811C163.478 87.3491 163.746 87.6331 164.082 87.8331C164.418 88.0251 164.79 88.1211 165.198 88.1211C165.606 88.1211 165.978 88.0251 166.314 87.8331C166.658 87.6331 166.93 87.3491 167.13 86.9811C167.33 86.6051 167.43 86.1691 167.43 85.6731ZM170.926 81.3291C170.718 81.3291 170.542 81.2571 170.398 81.1131C170.254 80.9691 170.182 80.7931 170.182 80.5851C170.182 80.3771 170.254 80.2011 170.398 80.0571C170.542 79.9131 170.718 79.8411 170.926 79.8411C171.126 79.8411 171.294 79.9131 171.43 80.0571C171.574 80.2011 171.646 80.3771 171.646 80.5851C171.646 80.7931 171.574 80.9691 171.43 81.1131C171.294 81.2571 171.126 81.3291 170.926 81.3291ZM171.454 82.3971V88.9731H170.362V82.3971H171.454ZM172.889 85.6611C172.889 84.9891 173.025 84.4011 173.297 83.8971C173.569 83.3851 173.941 82.9891 174.413 82.7091C174.893 82.4291 175.425 82.2891 176.009 82.2891C176.585 82.2891 177.085 82.4131 177.509 82.6611C177.933 82.9091 178.249 83.2211 178.457 83.5971V82.3971H179.561V88.9731H178.457V87.7491C178.241 88.1331 177.917 88.4531 177.485 88.7091C177.061 88.9571 176.565 89.0811 175.997 89.0811C175.413 89.0811 174.885 88.9371 174.413 88.6491C173.941 88.3611 173.569 87.9571 173.297 87.4371C173.025 86.9171 172.889 86.3251 172.889 85.6611ZM178.457 85.6731C178.457 85.1771 178.357 84.7451 178.157 84.3771C177.957 84.0091 177.685 83.7291 177.341 83.5371C177.005 83.3371 176.633 83.2371 176.225 83.2371C175.817 83.2371 175.445 83.3331 175.109 83.5251C174.773 83.7171 174.505 83.9971 174.305 84.3651C174.105 84.7331 174.005 85.1651 174.005 85.6611C174.005 86.1651 174.105 86.6051 174.305 86.9811C174.505 87.3491 174.773 87.6331 175.109 87.8331C175.445 88.0251 175.817 88.1211 176.225 88.1211C176.633 88.1211 177.005 88.0251 177.341 87.8331C177.685 87.6331 177.957 87.3491 178.157 86.9811C178.357 86.6051 178.457 86.1691 178.457 85.6731ZM184.592 82.2771C185.392 82.2771 186.04 82.5211 186.536 83.0091C187.032 83.4891 187.28 84.1851 187.28 85.0971V88.9731H186.2V85.2531C186.2 84.5971 186.036 84.0971 185.708 83.7531C185.38 83.4011 184.932 83.2251 184.364 83.2251C183.788 83.2251 183.328 83.4051 182.984 83.7651C182.648 84.1251 182.48 84.6491 182.48 85.3371V88.9731H181.388V82.3971H182.48V83.3331C182.696 82.9971 182.988 82.7371 183.356 82.5531C183.732 82.3691 184.144 82.2771 184.592 82.2771ZM190.378 83.2971V87.1731C190.378 87.4931 190.446 87.7211 190.582 87.8571C190.718 87.9851 190.954 88.0491 191.29 88.0491H192.094V88.9731H191.11C190.502 88.9731 190.046 88.8331 189.742 88.5531C189.438 88.2731 189.286 87.8131 189.286 87.1731V83.2971H188.434V82.3971H189.286V80.7411H190.378V82.3971H192.094V83.2971H190.378ZM192.991 85.6611C192.991 84.9891 193.127 84.4011 193.399 83.8971C193.671 83.3851 194.043 82.9891 194.515 82.7091C194.995 82.4291 195.527 82.2891 196.111 82.2891C196.687 82.2891 197.187 82.4131 197.611 82.6611C198.035 82.9091 198.351 83.2211 198.559 83.5971V82.3971H199.663V88.9731H198.559V87.7491C198.343 88.1331 198.019 88.4531 197.587 88.7091C197.163 88.9571 196.667 89.0811 196.099 89.0811C195.515 89.0811 194.987 88.9371 194.515 88.6491C194.043 88.3611 193.671 87.9571 193.399 87.4371C193.127 86.9171 192.991 86.3251 192.991 85.6611ZM198.559 85.6731C198.559 85.1771 198.459 84.7451 198.259 84.3771C198.059 84.0091 197.787 83.7291 197.443 83.5371C197.107 83.3371 196.735 83.2371 196.327 83.2371C195.919 83.2371 195.547 83.3331 195.211 83.5251C194.875 83.7171 194.607 83.9971 194.407 84.3651C194.207 84.7331 194.107 85.1651 194.107 85.6611C194.107 86.1651 194.207 86.6051 194.407 86.9811C194.607 87.3491 194.875 87.6331 195.211 87.8331C195.547 88.0251 195.919 88.1211 196.327 88.1211C196.735 88.1211 197.107 88.0251 197.443 87.8331C197.787 87.6331 198.059 87.3491 198.259 86.9811C198.459 86.6051 198.559 86.1691 198.559 85.6731ZM202.582 83.4651C202.774 83.0891 203.046 82.7971 203.398 82.5891C203.758 82.3811 204.194 82.2771 204.706 82.2771V83.4051H204.418C203.194 83.4051 202.582 84.0691 202.582 85.3971V88.9731H201.49V82.3971H202.582V83.4651ZM205.541 85.6611C205.541 84.9891 205.677 84.4011 205.949 83.8971C206.221 83.3851 206.593 82.9891 207.065 82.7091C207.545 82.4291 208.077 82.2891 208.661 82.2891C209.237 82.2891 209.737 82.4131 210.161 82.6611C210.585 82.9091 210.901 83.2211 211.109 83.5971V82.3971H212.213V88.9731H211.109V87.7491C210.893 88.1331 210.569 88.4531 210.137 88.7091C209.713 88.9571 209.217 89.0811 208.649 89.0811C208.065 89.0811 207.537 88.9371 207.065 88.6491C206.593 88.3611 206.221 87.9571 205.949 87.4371C205.677 86.9171 205.541 86.3251 205.541 85.6611ZM211.109 85.6731C211.109 85.1771 211.009 84.7451 210.809 84.3771C210.609 84.0091 210.337 83.7291 209.993 83.5371C209.657 83.3371 209.285 83.2371 208.877 83.2371C208.469 83.2371 208.097 83.3331 207.761 83.5251C207.425 83.7171 207.157 83.9971 206.957 84.3651C206.757 84.7331 206.657 85.1651 206.657 85.6611C206.657 86.1651 206.757 86.6051 206.957 86.9811C207.157 87.3491 207.425 87.6331 207.761 87.8331C208.097 88.0251 208.469 88.1211 208.877 88.1211C209.285 88.1211 209.657 88.0251 209.993 87.8331C210.337 87.6331 210.609 87.3491 210.809 86.9811C211.009 86.6051 211.109 86.1691 211.109 85.6731ZM220.893 88.9731L218.313 86.0691V88.9731H217.221V80.0931H218.313V85.3131L220.845 82.3971H222.369L219.273 85.6731L222.381 88.9731H220.893ZM222.971 85.6611C222.971 84.9891 223.107 84.4011 223.379 83.8971C223.651 83.3851 224.023 82.9891 224.495 82.7091C224.975 82.4291 225.507 82.2891 226.091 82.2891C226.667 82.2891 227.167 82.4131 227.591 82.6611C228.015 82.9091 228.331 83.2211 228.539 83.5971V82.3971H229.643V88.9731H228.539V87.7491C228.323 88.1331 227.999 88.4531 227.567 88.7091C227.143 88.9571 226.647 89.0811 226.079 89.0811C225.495 89.0811 224.967 88.9371 224.495 88.6491C224.023 88.3611 223.651 87.9571 223.379 87.4371C223.107 86.9171 222.971 86.3251 222.971 85.6611ZM228.539 85.6731C228.539 85.1771 228.439 84.7451 228.239 84.3771C228.039 84.0091 227.767 83.7291 227.423 83.5371C227.087 83.3371 226.715 83.2371 226.307 83.2371C225.899 83.2371 225.527 83.3331 225.191 83.5251C224.855 83.7171 224.587 83.9971 224.387 84.3651C224.187 84.7331 224.087 85.1651 224.087 85.6611C224.087 86.1651 224.187 86.6051 224.387 86.9811C224.587 87.3491 224.855 87.6331 225.191 87.8331C225.527 88.0251 225.899 88.1211 226.307 88.1211C226.715 88.1211 227.087 88.0251 227.423 87.8331C227.767 87.6331 228.039 87.3491 228.239 86.9811C228.439 86.6051 228.539 86.1691 228.539 85.6731ZM239.379 82.2771C239.891 82.2771 240.347 82.3851 240.747 82.6011C241.147 82.8091 241.463 83.1251 241.695 83.5491C241.927 83.9731 242.043 84.4891 242.043 85.0971V88.9731H240.963V85.2531C240.963 84.5971 240.799 84.0971 240.471 83.7531C240.151 83.4011 239.715 83.2251 239.163 83.2251C238.595 83.2251 238.143 83.4091 237.807 83.7771C237.471 84.1371 237.303 84.6611 237.303 85.3491V88.9731H236.223V85.2531C236.223 84.5971 236.059 84.0971 235.731 83.7531C235.411 83.4011 234.975 83.2251 234.423 83.2251C233.855 83.2251 233.403 83.4091 233.067 83.7771C232.731 84.1371 232.563 84.6611 232.563 85.3491V88.9731H231.471V82.3971H232.563V83.3451C232.779 83.0011 233.067 82.7371 233.427 82.5531C233.795 82.3691 234.199 82.2771 234.639 82.2771C235.191 82.2771 235.679 82.4011 236.103 82.6491C236.527 82.8971 236.843 83.2611 237.051 83.7411C237.235 83.2771 237.539 82.9171 237.963 82.6611C238.387 82.4051 238.859 82.2771 239.379 82.2771ZM249.648 82.3971V88.9731H248.556V88.0011C248.348 88.3371 248.056 88.6011 247.68 88.7931C247.312 88.9771 246.904 89.0691 246.456 89.0691C245.944 89.0691 245.484 88.9651 245.076 88.7571C244.668 88.5411 244.344 88.2211 244.104 87.7971C243.872 87.3731 243.756 86.8571 243.756 86.2491V82.3971H244.836V86.1051C244.836 86.7531 245 87.2531 245.328 87.6051C245.656 87.9491 246.104 88.1211 246.672 88.1211C247.256 88.1211 247.716 87.9411 248.052 87.5811C248.388 87.2211 248.556 86.6971 248.556 86.0091V82.3971H249.648ZM254.247 85.6611C254.247 84.9891 254.383 84.4011 254.655 83.8971C254.927 83.3851 255.299 82.9891 255.771 82.7091C256.251 82.4291 256.783 82.2891 257.367 82.2891C257.943 82.2891 258.443 82.4131 258.867 82.6611C259.291 82.9091 259.607 83.2211 259.815 83.5971V82.3971H260.919V88.9731H259.815V87.7491C259.599 88.1331 259.275 88.4531 258.843 88.7091C258.419 88.9571 257.923 89.0811 257.355 89.0811C256.771 89.0811 256.243 88.9371 255.771 88.6491C255.299 88.3611 254.927 87.9571 254.655 87.4371C254.383 86.9171 254.247 86.3251 254.247 85.6611ZM259.815 85.6731C259.815 85.1771 259.715 84.7451 259.515 84.3771C259.315 84.0091 259.043 83.7291 258.699 83.5371C258.363 83.3371 257.991 83.2371 257.583 83.2371C257.175 83.2371 256.803 83.3331 256.467 83.5251C256.131 83.7171 255.863 83.9971 255.663 84.3651C255.463 84.7331 255.363 85.1651 255.363 85.6611C255.363 86.1651 255.463 86.6051 255.663 86.9811C255.863 87.3491 256.131 87.6331 256.467 87.8331C256.803 88.0251 257.175 88.1211 257.583 88.1211C257.991 88.1211 258.363 88.0251 258.699 87.8331C259.043 87.6331 259.315 87.3491 259.515 86.9811C259.715 86.6051 259.815 86.1691 259.815 85.6731ZM262.338 85.6611C262.338 84.9891 262.474 84.4011 262.746 83.8971C263.018 83.3851 263.39 82.9891 263.862 82.7091C264.342 82.4291 264.878 82.2891 265.47 82.2891C265.982 82.2891 266.458 82.4091 266.898 82.6491C267.338 82.8811 267.674 83.1891 267.906 83.5731V80.0931H269.01V88.9731H267.906V87.7371C267.69 88.1291 267.37 88.4531 266.946 88.7091C266.522 88.9571 266.026 89.0811 265.458 89.0811C264.874 89.0811 264.342 88.9371 263.862 88.6491C263.39 88.3611 263.018 87.9571 262.746 87.4371C262.474 86.9171 262.338 86.3251 262.338 85.6611ZM267.906 85.6731C267.906 85.1771 267.806 84.7451 267.606 84.3771C267.406 84.0091 267.134 83.7291 266.79 83.5371C266.454 83.3371 266.082 83.2371 265.674 83.2371C265.266 83.2371 264.894 83.3331 264.558 83.5251C264.222 83.7171 263.954 83.9971 263.754 84.3651C263.554 84.7331 263.454 85.1651 263.454 85.6611C263.454 86.1651 263.554 86.6051 263.754 86.9811C263.954 87.3491 264.222 87.6331 264.558 87.8331C264.894 88.0251 265.266 88.1211 265.674 88.1211C266.082 88.1211 266.454 88.0251 266.79 87.8331C267.134 87.6331 267.406 87.3491 267.606 86.9811C267.806 86.6051 267.906 86.1691 267.906 85.6731ZM270.43 85.6611C270.43 84.9891 270.566 84.4011 270.838 83.8971C271.11 83.3851 271.482 82.9891 271.954 82.7091C272.434 82.4291 272.966 82.2891 273.55 82.2891C274.126 82.2891 274.626 82.4131 275.05 82.6611C275.474 82.9091 275.79 83.2211 275.998 83.5971V82.3971H277.102V88.9731H275.998V87.7491C275.782 88.1331 275.458 88.4531 275.026 88.7091C274.602 88.9571 274.106 89.0811 273.538 89.0811C272.954 89.0811 272.426 88.9371 271.954 88.6491C271.482 88.3611 271.11 87.9571 270.838 87.4371C270.566 86.9171 270.43 86.3251 270.43 85.6611ZM275.998 85.6731C275.998 85.1771 275.898 84.7451 275.698 84.3771C275.498 84.0091 275.226 83.7291 274.882 83.5371C274.546 83.3371 274.174 83.2371 273.766 83.2371C273.358 83.2371 272.986 83.3331 272.65 83.5251C272.314 83.7171 272.046 83.9971 271.846 84.3651C271.646 84.7331 271.546 85.1651 271.546 85.6611C271.546 86.1651 271.646 86.6051 271.846 86.9811C272.046 87.3491 272.314 87.6331 272.65 87.8331C272.986 88.0251 273.358 88.1211 273.766 88.1211C274.174 88.1211 274.546 88.0251 274.882 87.8331C275.226 87.6331 275.498 87.3491 275.698 86.9811C275.898 86.6051 275.998 86.1691 275.998 85.6731ZM280.021 80.0931V88.9731H278.929V80.0931H280.021ZM281.456 85.6611C281.456 84.9891 281.592 84.4011 281.864 83.8971C282.136 83.3851 282.508 82.9891 282.98 82.7091C283.46 82.4291 283.992 82.2891 284.576 82.2891C285.152 82.2891 285.652 82.4131 286.076 82.6611C286.5 82.9091 286.816 83.2211 287.024 83.5971V82.3971H288.128V88.9731H287.024V87.7491C286.808 88.1331 286.484 88.4531 286.052 88.7091C285.628 88.9571 285.132 89.0811 284.564 89.0811C283.98 89.0811 283.452 88.9371 282.98 88.6491C282.508 88.3611 282.136 87.9571 281.864 87.4371C281.592 86.9171 281.456 86.3251 281.456 85.6611ZM287.024 85.6731C287.024 85.1771 286.924 84.7451 286.724 84.3771C286.524 84.0091 286.252 83.7291 285.908 83.5371C285.572 83.3371 285.2 83.2371 284.792 83.2371C284.384 83.2371 284.012 83.3331 283.676 83.5251C283.34 83.7171 283.072 83.9971 282.872 84.3651C282.672 84.7331 282.572 85.1651 282.572 85.6611C282.572 86.1651 282.672 86.6051 282.872 86.9811C283.072 87.3491 283.34 87.6331 283.676 87.8331C284.012 88.0251 284.384 88.1211 284.792 88.1211C285.2 88.1211 285.572 88.0251 285.908 87.8331C286.252 87.6331 286.524 87.3491 286.724 86.9811C286.924 86.6051 287.024 86.1691 287.024 85.6731ZM293.22 82.2771C293.716 82.2771 294.164 82.3851 294.564 82.6011C294.964 82.8091 295.276 83.1251 295.5 83.5491C295.732 83.9731 295.848 84.4891 295.848 85.0971V88.9731H294.768V85.2531C294.768 84.5971 294.604 84.0971 294.276 83.7531C293.948 83.4011 293.5 83.2251 292.932 83.2251C292.356 83.2251 291.896 83.4051 291.552 83.7651C291.216 84.1251 291.048 84.6491 291.048 85.3371V88.9731H289.956V80.0931H291.048V83.3331C291.264 82.9971 291.56 82.7371 291.936 82.5531C292.32 82.3691 292.748 82.2771 293.22 82.2771ZM30.588 101.397L26.628 111.069H25.5L26.796 107.901L24.144 101.397H25.356L27.42 106.725L29.46 101.397H30.588ZM31.2597 104.661C31.2597 103.989 31.3957 103.401 31.6677 102.897C31.9397 102.385 32.3117 101.989 32.7837 101.709C33.2637 101.429 33.7957 101.289 34.3797 101.289C34.9557 101.289 35.4557 101.413 35.8797 101.661C36.3037 101.909 36.6197 102.221 36.8277 102.597V101.397H37.9317V107.973H36.8277V106.749C36.6117 107.133 36.2877 107.453 35.8557 107.709C35.4317 107.957 34.9357 108.081 34.3677 108.081C33.7837 108.081 33.2557 107.937 32.7837 107.649C32.3117 107.361 31.9397 106.957 31.6677 106.437C31.3957 105.917 31.2597 105.325 31.2597 104.661ZM36.8277 104.673C36.8277 104.177 36.7277 103.745 36.5277 103.377C36.3277 103.009 36.0557 102.729 35.7117 102.537C35.3757 102.337 35.0037 102.237 34.5957 102.237C34.1877 102.237 33.8157 102.333 33.4797 102.525C33.1437 102.717 32.8757 102.997 32.6757 103.365C32.4757 103.733 32.3757 104.165 32.3757 104.661C32.3757 105.165 32.4757 105.605 32.6757 105.981C32.8757 106.349 33.1437 106.633 33.4797 106.833C33.8157 107.025 34.1877 107.121 34.5957 107.121C35.0037 107.121 35.3757 107.025 35.7117 106.833C36.0557 106.633 36.3277 106.349 36.5277 105.981C36.7277 105.605 36.8277 105.169 36.8277 104.673ZM42.9631 101.277C43.7631 101.277 44.4111 101.521 44.9071 102.009C45.4031 102.489 45.6511 103.185 45.6511 104.097V107.973H44.5711L44.5711 104.253C44.5711 103.597 44.4071 103.097 44.0791 102.753C43.7511 102.401 43.3031 102.225 42.7351 102.225C42.1591 102.225 41.6991 102.405 41.3551 102.765C41.0191 103.125 40.8511 103.649 40.8511 104.337L40.8511 107.973H39.7591V101.397H40.8511V102.333C41.0671 101.997 41.3591 101.737 41.7271 101.553C42.1031 101.369 42.5151 101.277 42.9631 101.277ZM50.1289 101.289C50.6969 101.289 51.1929 101.413 51.6169 101.661C52.0489 101.909 52.3689 102.221 52.5769 102.597V101.397H53.6809V108.117C53.6809 108.717 53.5529 109.249 53.2969 109.713C53.0409 110.185 52.6729 110.553 52.1929 110.817C51.7209 111.081 51.1689 111.213 50.5369 111.213C49.6729 111.213 48.9529 111.009 48.3769 110.601C47.8009 110.193 47.4609 109.637 47.3569 108.933H48.4369C48.5569 109.333 48.8049 109.653 49.1809 109.893C49.5569 110.141 50.0089 110.265 50.5369 110.265C51.1369 110.265 51.6249 110.077 52.0009 109.701C52.3849 109.325 52.5769 108.797 52.5769 108.117V106.737C52.3609 107.121 52.0409 107.441 51.6169 107.697C51.1929 107.953 50.6969 108.081 50.1289 108.081C49.5449 108.081 49.0129 107.937 48.5329 107.649C48.0609 107.361 47.6889 106.957 47.4169 106.437C47.1449 105.917 47.0089 105.325 47.0089 104.661C47.0089 103.989 47.1449 103.401 47.4169 102.897C47.6889 102.385 48.0609 101.989 48.5329 101.709C49.0129 101.429 49.5449 101.289 50.1289 101.289ZM52.5769 104.673C52.5769 104.177 52.4769 103.745 52.2769 103.377C52.0769 103.009 51.8049 102.729 51.4609 102.537C51.1249 102.337 50.7529 102.237 50.3449 102.237C49.9369 102.237 49.5649 102.333 49.2289 102.525C48.8929 102.717 48.6249 102.997 48.4249 103.365C48.2249 103.733 48.1249 104.165 48.1249 104.661C48.1249 105.165 48.2249 105.605 48.4249 105.981C48.6249 106.349 48.8929 106.633 49.2289 106.833C49.5649 107.025 49.9369 107.121 50.3449 107.121C50.7529 107.121 51.1249 107.025 51.4609 106.833C51.8049 106.633 52.0769 106.349 52.2769 105.981C52.4769 105.605 52.5769 105.169 52.5769 104.673ZM66.5975 101.277C67.1095 101.277 67.5655 101.385 67.9655 101.601C68.3655 101.809 68.6815 102.125 68.9135 102.549C69.1455 102.973 69.2615 103.489 69.2615 104.097V107.973H68.1815V104.253C68.1815 103.597 68.0175 103.097 67.6895 102.753C67.3695 102.401 66.9335 102.225 66.3815 102.225C65.8135 102.225 65.3615 102.409 65.0255 102.777C64.6895 103.137 64.5215 103.661 64.5215 104.349V107.973H63.4415V104.253C63.4415 103.597 63.2775 103.097 62.9495 102.753C62.6295 102.401 62.1935 102.225 61.6415 102.225C61.0735 102.225 60.6215 102.409 60.2855 102.777C59.9495 103.137 59.7815 103.661 59.7815 104.349V107.973H58.6895V101.397H59.7815V102.345C59.9975 102.001 60.2855 101.737 60.6455 101.553C61.0135 101.369 61.4175 101.277 61.8575 101.277C62.4095 101.277 62.8975 101.401 63.3215 101.649C63.7455 101.897 64.0615 102.261 64.2695 102.741C64.4535 102.277 64.7575 101.917 65.1815 101.661C65.6055 101.405 66.0775 101.277 66.5975 101.277ZM77.0347 104.433C77.0347 104.641 77.0227 104.861 76.9987 105.093H71.7427C71.7827 105.741 72.0027 106.249 72.4027 106.617C72.8107 106.977 73.3027 107.157 73.8787 107.157C74.3507 107.157 74.7427 107.049 75.0547 106.833C75.3747 106.609 75.5987 106.313 75.7267 105.945H76.9027C76.7267 106.577 76.3747 107.093 75.8467 107.493C75.3187 107.885 74.6627 108.081 73.8787 108.081C73.2547 108.081 72.6947 107.941 72.1987 107.661C71.7107 107.381 71.3267 106.985 71.0467 106.473C70.7667 105.953 70.6267 105.353 70.6267 104.673C70.6267 103.993 70.7627 103.397 71.0347 102.885C71.3067 102.373 71.6867 101.981 72.1747 101.709C72.6707 101.429 73.2387 101.289 73.8787 101.289C74.5027 101.289 75.0547 101.425 75.5347 101.697C76.0147 101.969 76.3827 102.345 76.6387 102.825C76.9027 103.297 77.0347 103.833 77.0347 104.433ZM75.9067 104.205C75.9067 103.789 75.8147 103.433 75.6307 103.137C75.4467 102.833 75.1947 102.605 74.8747 102.453C74.5627 102.293 74.2147 102.213 73.8307 102.213C73.2787 102.213 72.8067 102.389 72.4147 102.741C72.0307 103.093 71.8107 103.581 71.7547 104.205H75.9067ZM86.3662 101.277C86.8782 101.277 87.3342 101.385 87.7342 101.601C88.1342 101.809 88.4502 102.125 88.6822 102.549C88.9142 102.973 89.0302 103.489 89.0302 104.097V107.973H87.9502V104.253C87.9502 103.597 87.7862 103.097 87.4582 102.753C87.1382 102.401 86.7022 102.225 86.1502 102.225C85.5822 102.225 85.1302 102.409 84.7942 102.777C84.4582 103.137 84.2902 103.661 84.2902 104.349V107.973H83.2102V104.253C83.2102 103.597 83.0462 103.097 82.7182 102.753C82.3982 102.401 81.9622 102.225 81.4102 102.225C80.8422 102.225 80.3902 102.409 80.0542 102.777C79.7182 103.137 79.5502 103.661 79.5502 104.349V107.973H78.4582V101.397H79.5502V102.345C79.7662 102.001 80.0542 101.737 80.4142 101.553C80.7822 101.369 81.1862 101.277 81.6262 101.277C82.1782 101.277 82.6662 101.401 83.0902 101.649C83.5142 101.897 83.8302 102.261 84.0382 102.741C84.2222 102.277 84.5262 101.917 84.9502 101.661C85.3742 101.405 85.8462 101.277 86.3662 101.277ZM91.8954 102.609C92.1114 102.233 92.4314 101.921 92.8554 101.673C93.2874 101.417 93.7874 101.289 94.3554 101.289C94.9394 101.289 95.4674 101.429 95.9394 101.709C96.4194 101.989 96.7954 102.385 97.0674 102.897C97.3394 103.401 97.4754 103.989 97.4754 104.661C97.4754 105.325 97.3394 105.917 97.0674 106.437C96.7954 106.957 96.4194 107.361 95.9394 107.649C95.4674 107.937 94.9394 108.081 94.3554 108.081C93.7954 108.081 93.2994 107.957 92.8674 107.709C92.4434 107.453 92.1194 107.137 91.8954 106.761V111.093H90.8034V101.397H91.8954V102.609ZM96.3594 104.661C96.3594 104.165 96.2594 103.733 96.0594 103.365C95.8594 102.997 95.5874 102.717 95.2434 102.525C94.9074 102.333 94.5354 102.237 94.1274 102.237C93.7274 102.237 93.3554 102.337 93.0114 102.537C92.6754 102.729 92.4034 103.013 92.1954 103.389C91.9954 103.757 91.8954 104.185 91.8954 104.673C91.8954 105.169 91.9954 105.605 92.1954 105.981C92.4034 106.349 92.6754 106.633 93.0114 106.833C93.3554 107.025 93.7274 107.121 94.1274 107.121C94.5354 107.121 94.9074 107.025 95.2434 106.833C95.5874 106.633 95.8594 106.349 96.0594 105.981C96.2594 105.605 96.3594 105.165 96.3594 104.661ZM104.895 104.433C104.895 104.641 104.883 104.861 104.859 105.093H99.6028C99.6428 105.741 99.8628 106.249 100.263 106.617C100.671 106.977 101.163 107.157 101.739 107.157C102.211 107.157 102.603 107.049 102.915 106.833C103.235 106.609 103.459 106.313 103.587 105.945H104.763C104.587 106.577 104.235 107.093 103.707 107.493C103.179 107.885 102.523 108.081 101.739 108.081C101.115 108.081 100.555 107.941 100.059 107.661C99.5708 107.381 99.1868 106.985 98.9068 106.473C98.6268 105.953 98.4868 105.353 98.4868 104.673C98.4868 103.993 98.6228 103.397 98.8948 102.885C99.1668 102.373 99.5468 101.981 100.035 101.709C100.531 101.429 101.099 101.289 101.739 101.289C102.363 101.289 102.915 101.425 103.395 101.697C103.875 101.969 104.243 102.345 104.499 102.825C104.763 103.297 104.895 103.833 104.895 104.433ZM103.767 104.205C103.767 103.789 103.675 103.433 103.491 103.137C103.307 102.833 103.055 102.605 102.735 102.453C102.423 102.293 102.075 102.213 101.691 102.213C101.139 102.213 100.667 102.389 100.275 102.741C99.8908 103.093 99.6708 103.581 99.6148 104.205H103.767ZM107.41 99.0931V107.973H106.318V99.0931H107.41ZM108.845 104.661C108.845 103.989 108.981 103.401 109.253 102.897C109.525 102.385 109.897 101.989 110.369 101.709C110.849 101.429 111.381 101.289 111.965 101.289C112.541 101.289 113.041 101.413 113.465 101.661C113.889 101.909 114.205 102.221 114.413 102.597V101.397H115.517V107.973H114.413V106.749C114.197 107.133 113.873 107.453 113.441 107.709C113.017 107.957 112.521 108.081 111.953 108.081C111.369 108.081 110.841 107.937 110.369 107.649C109.897 107.361 109.525 106.957 109.253 106.437C108.981 105.917 108.845 105.325 108.845 104.661ZM114.413 104.673C114.413 104.177 114.313 103.745 114.113 103.377C113.913 103.009 113.641 102.729 113.297 102.537C112.961 102.337 112.589 102.237 112.181 102.237C111.773 102.237 111.401 102.333 111.065 102.525C110.729 102.717 110.461 102.997 110.261 103.365C110.061 103.733 109.961 104.165 109.961 104.661C109.961 105.165 110.061 105.605 110.261 105.981C110.461 106.349 110.729 106.633 111.065 106.833C111.401 107.025 111.773 107.121 112.181 107.121C112.589 107.121 112.961 107.025 113.297 106.833C113.641 106.633 113.913 106.349 114.113 105.981C114.313 105.605 114.413 105.169 114.413 104.673ZM117.933 100.329C117.725 100.329 117.549 100.257 117.405 100.113C117.269 99.9691 117.201 99.7931 117.201 99.5851C117.201 99.3771 117.269 99.2011 117.405 99.0571C117.549 98.9131 117.725 98.8411 117.933 98.8411C118.141 98.8411 118.313 98.9131 118.449 99.0571C118.593 99.2011 118.665 99.3771 118.665 99.5851C118.665 99.7931 118.593 99.9691 118.449 100.113C118.313 100.257 118.141 100.329 117.933 100.329ZM118.473 109.401C118.473 109.985 118.325 110.413 118.029 110.685C117.733 110.957 117.301 111.093 116.733 111.093H116.097V110.169H116.553C116.857 110.169 117.069 110.109 117.189 109.989C117.317 109.869 117.381 109.665 117.381 109.377V101.397H118.473V109.401ZM119.895 104.661C119.895 103.989 120.031 103.401 120.303 102.897C120.575 102.385 120.947 101.989 121.419 101.709C121.899 101.429 122.431 101.289 123.015 101.289C123.591 101.289 124.091 101.413 124.515 101.661C124.939 101.909 125.255 102.221 125.463 102.597V101.397H126.567V107.973H125.463V106.749C125.247 107.133 124.923 107.453 124.491 107.709C124.067 107.957 123.571 108.081 123.003 108.081C122.419 108.081 121.891 107.937 121.419 107.649C120.947 107.361 120.575 106.957 120.303 106.437C120.031 105.917 119.895 105.325 119.895 104.661ZM125.463 104.673C125.463 104.177 125.363 103.745 125.163 103.377C124.963 103.009 124.691 102.729 124.347 102.537C124.011 102.337 123.639 102.237 123.231 102.237C122.823 102.237 122.451 102.333 122.115 102.525C121.779 102.717 121.511 102.997 121.311 103.365C121.111 103.733 121.011 104.165 121.011 104.661C121.011 105.165 121.111 105.605 121.311 105.981C121.511 106.349 121.779 106.633 122.115 106.833C122.451 107.025 122.823 107.121 123.231 107.121C123.639 107.121 124.011 107.025 124.347 106.833C124.691 106.633 124.963 106.349 125.163 105.981C125.363 105.605 125.463 105.169 125.463 104.673ZM129.487 102.465C129.679 102.089 129.951 101.797 130.303 101.589C130.663 101.381 131.099 101.277 131.611 101.277V102.405H131.323C130.099 102.405 129.487 103.069 129.487 104.397V107.973H128.395V101.397H129.487V102.465ZM133.417 100.329C133.209 100.329 133.033 100.257 132.889 100.113C132.745 99.9691 132.673 99.7931 132.673 99.5851C132.673 99.3771 132.745 99.2011 132.889 99.0571C133.033 98.9131 133.209 98.8411 133.417 98.8411C133.617 98.8411 133.785 98.9131 133.921 99.0571C134.065 99.2011 134.137 99.3771 134.137 99.5851C134.137 99.7931 134.065 99.9691 133.921 100.113C133.785 100.257 133.617 100.329 133.417 100.329ZM133.945 101.397V107.973H132.853V101.397H133.945ZM143.914 106.113H140.266L139.594 107.973H138.442L141.466 99.6571H142.726L145.738 107.973H144.586L143.914 106.113ZM143.602 105.225L142.09 101.001L140.578 105.225H143.602ZM148.129 99.0931V107.973H147.037V99.0931H148.129ZM154.533 103.113V104.037H149.745V103.113H154.533ZM163.272 109.557L161.604 107.889C161.196 108.001 160.78 108.057 160.356 108.057C159.58 108.057 158.872 107.877 158.232 107.517C157.592 107.149 157.084 106.641 156.708 105.993C156.34 105.337 156.156 104.601 156.156 103.785C156.156 102.969 156.34 102.237 156.708 101.589C157.084 100.933 157.592 100.425 158.232 100.065C158.872 99.6971 159.58 99.5131 160.356 99.5131C161.14 99.5131 161.852 99.6971 162.492 100.065C163.132 100.425 163.636 100.929 164.004 101.577C164.372 102.225 164.556 102.961 164.556 103.785C164.556 104.585 164.38 105.305 164.028 105.945C163.676 106.585 163.192 107.089 162.576 107.457L164.688 109.557H163.272ZM157.272 103.785C157.272 104.449 157.404 105.033 157.668 105.537C157.94 106.041 158.308 106.429 158.772 106.701C159.244 106.973 159.772 107.109 160.356 107.109C160.94 107.109 161.464 106.973 161.928 106.701C162.4 106.429 162.768 106.041 163.032 105.537C163.304 105.033 163.44 104.449 163.44 103.785C163.44 103.113 163.304 102.529 163.032 102.033C162.768 101.529 162.404 101.141 161.94 100.869C161.476 100.597 160.948 100.461 160.356 100.461C159.764 100.461 159.236 100.597 158.772 100.869C158.308 101.141 157.94 101.529 157.668 102.033C157.404 102.529 157.272 103.113 157.272 103.785ZM171.835 101.397V107.973H170.743V107.001C170.535 107.337 170.243 107.601 169.867 107.793C169.499 107.977 169.091 108.069 168.643 108.069C168.131 108.069 167.671 107.965 167.263 107.757C166.855 107.541 166.531 107.221 166.291 106.797C166.059 106.373 165.943 105.857 165.943 105.249V101.397H167.023V105.105C167.023 105.753 167.187 106.253 167.515 106.605C167.843 106.949 168.291 107.121 168.859 107.121C169.443 107.121 169.903 106.941 170.239 106.581C170.575 106.221 170.743 105.697 170.743 105.009V101.397H171.835ZM174.753 102.465C174.945 102.089 175.217 101.797 175.569 101.589C175.929 101.381 176.365 101.277 176.877 101.277V102.405H176.589C175.365 102.405 174.753 103.069 174.753 104.397V107.973H173.661V101.397H174.753V102.465ZM177.711 104.661C177.711 103.989 177.847 103.401 178.119 102.897C178.391 102.385 178.763 101.989 179.235 101.709C179.715 101.429 180.247 101.289 180.831 101.289C181.407 101.289 181.907 101.413 182.331 101.661C182.755 101.909 183.071 102.221 183.279 102.597V101.397H184.383V107.973H183.279V106.749C183.063 107.133 182.739 107.453 182.307 107.709C181.883 107.957 181.387 108.081 180.819 108.081C180.235 108.081 179.707 107.937 179.235 107.649C178.763 107.361 178.391 106.957 178.119 106.437C177.847 105.917 177.711 105.325 177.711 104.661ZM183.279 104.673C183.279 104.177 183.179 103.745 182.979 103.377C182.779 103.009 182.507 102.729 182.163 102.537C181.827 102.337 181.455 102.237 181.047 102.237C180.639 102.237 180.267 102.333 179.931 102.525C179.595 102.717 179.327 102.997 179.127 103.365C178.927 103.733 178.827 104.165 178.827 104.661C178.827 105.165 178.927 105.605 179.127 105.981C179.327 106.349 179.595 106.633 179.931 106.833C180.267 107.025 180.639 107.121 181.047 107.121C181.455 107.121 181.827 107.025 182.163 106.833C182.507 106.633 182.779 106.349 182.979 105.981C183.179 105.605 183.279 105.169 183.279 104.673ZM189.415 101.277C190.215 101.277 190.863 101.521 191.359 102.009C191.855 102.489 192.103 103.185 192.103 104.097V107.973H191.023V104.253C191.023 103.597 190.859 103.097 190.531 102.753C190.203 102.401 189.755 102.225 189.187 102.225C188.611 102.225 188.151 102.405 187.807 102.765C187.471 103.125 187.303 103.649 187.303 104.337V107.973H186.211V101.397H187.303V102.333C187.519 101.997 187.811 101.737 188.179 101.553C188.555 101.369 188.967 101.277 189.415 101.277ZM196.642 104.661C196.642 103.989 196.778 103.401 197.05 102.897C197.322 102.385 197.694 101.989 198.166 101.709C198.646 101.429 199.182 101.289 199.774 101.289C200.286 101.289 200.762 101.409 201.202 101.649C201.642 101.881 201.978 102.189 202.21 102.573V99.0931H203.314V107.973H202.21V106.737C201.994 107.129 201.674 107.453 201.25 107.709C200.826 107.957 200.33 108.081 199.762 108.081C199.178 108.081 198.646 107.937 198.166 107.649C197.694 107.361 197.322 106.957 197.05 106.437C196.778 105.917 196.642 105.325 196.642 104.661ZM202.21 104.673C202.21 104.177 202.11 103.745 201.91 103.377C201.71 103.009 201.438 102.729 201.094 102.537C200.758 102.337 200.386 102.237 199.978 102.237C199.57 102.237 199.198 102.333 198.862 102.525C198.526 102.717 198.258 102.997 198.058 103.365C197.858 103.733 197.758 104.165 197.758 104.661C197.758 105.165 197.858 105.605 198.058 105.981C198.258 106.349 198.526 106.633 198.862 106.833C199.198 107.025 199.57 107.121 199.978 107.121C200.386 107.121 200.758 107.025 201.094 106.833C201.438 106.633 201.71 106.349 201.91 105.981C202.11 105.605 202.21 105.169 202.21 104.673ZM204.733 104.661C204.733 103.989 204.869 103.401 205.141 102.897C205.413 102.385 205.785 101.989 206.257 101.709C206.737 101.429 207.269 101.289 207.853 101.289C208.429 101.289 208.929 101.413 209.353 101.661C209.777 101.909 210.093 102.221 210.301 102.597V101.397H211.405V107.973H210.301V106.749C210.085 107.133 209.761 107.453 209.329 107.709C208.905 107.957 208.409 108.081 207.841 108.081C207.257 108.081 206.729 107.937 206.257 107.649C205.785 107.361 205.413 106.957 205.141 106.437C204.869 105.917 204.733 105.325 204.733 104.661ZM210.301 104.673C210.301 104.177 210.201 103.745 210.001 103.377C209.801 103.009 209.529 102.729 209.185 102.537C208.849 102.337 208.477 102.237 208.069 102.237C207.661 102.237 207.289 102.333 206.953 102.525C206.617 102.717 206.349 102.997 206.149 103.365C205.949 103.733 205.849 104.165 205.849 104.661C205.849 105.165 205.949 105.605 206.149 105.981C206.349 106.349 206.617 106.633 206.953 106.833C207.289 107.025 207.661 107.121 208.069 107.121C208.477 107.121 208.849 107.025 209.185 106.833C209.529 106.633 209.801 106.349 210.001 105.981C210.201 105.605 210.301 105.169 210.301 104.673ZM216.436 101.277C217.236 101.277 217.884 101.521 218.38 102.009C218.876 102.489 219.124 103.185 219.124 104.097V107.973H218.044V104.253C218.044 103.597 217.88 103.097 217.552 102.753C217.224 102.401 216.776 102.225 216.208 102.225C215.632 102.225 215.172 102.405 214.828 102.765C214.492 103.125 214.324 103.649 214.324 104.337V107.973H213.232V101.397H214.324V102.333C214.54 101.997 214.832 101.737 215.2 101.553C215.576 101.369 215.988 101.277 216.436 101.277ZM32.832 120.277C33.344 120.277 33.8 120.385 34.2 120.601C34.6 120.809 34.916 121.125 35.148 121.549C35.38 121.973 35.496 122.489 35.496 123.097V126.973H34.416V123.253C34.416 122.597 34.252 122.097 33.924 121.753C33.604 121.401 33.168 121.225 32.616 121.225C32.048 121.225 31.596 121.409 31.26 121.777C30.924 122.137 30.756 122.661 30.756 123.349V126.973H29.676V123.253C29.676 122.597 29.512 122.097 29.184 121.753C28.864 121.401 28.428 121.225 27.876 121.225C27.308 121.225 26.856 121.409 26.52 121.777C26.184 122.137 26.016 122.661 26.016 123.349V126.973H24.924V120.397H26.016V121.345C26.232 121.001 26.52 120.737 26.88 120.553C27.248 120.369 27.652 120.277 28.092 120.277C28.644 120.277 29.132 120.401 29.556 120.649C29.98 120.897 30.296 121.261 30.504 121.741C30.688 121.277 30.992 120.917 31.416 120.661C31.84 120.405 32.312 120.277 32.832 120.277ZM43.2693 123.433C43.2693 123.641 43.2573 123.861 43.2333 124.093H37.9773C38.0173 124.741 38.2373 125.249 38.6373 125.617C39.0453 125.977 39.5373 126.157 40.1133 126.157C40.5853 126.157 40.9773 126.049 41.2893 125.833C41.6093 125.609 41.8333 125.313 41.9613 124.945H43.1373C42.9613 125.577 42.6093 126.093 42.0813 126.493C41.5533 126.885 40.8973 127.081 40.1133 127.081C39.4893 127.081 38.9293 126.941 38.4333 126.661C37.9453 126.381 37.5613 125.985 37.2813 125.473C37.0013 124.953 36.8613 124.353 36.8613 123.673C36.8613 122.993 36.9973 122.397 37.2693 121.885C37.5413 121.373 37.9213 120.981 38.4093 120.709C38.9053 120.429 39.4733 120.289 40.1133 120.289C40.7373 120.289 41.2893 120.425 41.7693 120.697C42.2493 120.969 42.6173 121.345 42.8733 121.825C43.1373 122.297 43.2693 122.833 43.2693 123.433ZM42.1413 123.205C42.1413 122.789 42.0493 122.433 41.8653 122.137C41.6813 121.833 41.4293 121.605 41.1093 121.453C40.7973 121.293 40.4493 121.213 40.0653 121.213C39.5133 121.213 39.0413 121.389 38.6493 121.741C38.2653 122.093 38.0453 122.581 37.9893 123.205H42.1413ZM47.8967 120.277C48.6967 120.277 49.3447 120.521 49.8407 121.009C50.3367 121.489 50.5847 122.185 50.5847 123.097V126.973H49.5047V123.253C49.5047 122.597 49.3407 122.097 49.0127 121.753C48.6847 121.401 48.2367 121.225 47.6687 121.225C47.0927 121.225 46.6327 121.405 46.2887 121.765C45.9527 122.125 45.7847 122.649 45.7847 123.337V126.973H44.6927V120.397H45.7847V121.333C46.0007 120.997 46.2927 120.737 46.6607 120.553C47.0367 120.369 47.4487 120.277 47.8967 120.277ZM55.0625 120.289C55.6305 120.289 56.1265 120.413 56.5505 120.661C56.9825 120.909 57.3025 121.221 57.5105 121.597V120.397H58.6145V127.117C58.6145 127.717 58.4865 128.249 58.2305 128.713C57.9745 129.185 57.6065 129.553 57.1265 129.817C56.6545 130.081 56.1025 130.213 55.4705 130.213C54.6065 130.213 53.8865 130.009 53.3105 129.601C52.7345 129.193 52.3945 128.637 52.2905 127.933H53.3705C53.4905 128.333 53.7385 128.653 54.1145 128.893C54.4905 129.141 54.9425 129.265 55.4705 129.265C56.0705 129.265 56.5585 129.077 56.9345 128.701C57.3185 128.325 57.5105 127.797 57.5105 127.117V125.737C57.2945 126.121 56.9745 126.441 56.5505 126.697C56.1265 126.953 55.6305 127.081 55.0625 127.081C54.4785 127.081 53.9465 126.937 53.4665 126.649C52.9945 126.361 52.6225 125.957 52.3505 125.437C52.0785 124.917 51.9425 124.325 51.9425 123.661C51.9425 122.989 52.0785 122.401 52.3505 121.897C52.6225 121.385 52.9945 120.989 53.4665 120.709C53.9465 120.429 54.4785 120.289 55.0625 120.289ZM57.5105 123.673C57.5105 123.177 57.4105 122.745 57.2105 122.377C57.0105 122.009 56.7385 121.729 56.3945 121.537C56.0585 121.337 55.6865 121.237 55.2785 121.237C54.8705 121.237 54.4985 121.333 54.1625 121.525C53.8265 121.717 53.5585 121.997 53.3585 122.365C53.1585 122.733 53.0585 123.165 53.0585 123.661C53.0585 124.165 53.1585 124.605 53.3585 124.981C53.5585 125.349 53.8265 125.633 54.1625 125.833C54.4985 126.025 54.8705 126.121 55.2785 126.121C55.6865 126.121 56.0585 126.025 56.3945 125.833C56.7385 125.633 57.0105 125.349 57.2105 124.981C57.4105 124.605 57.5105 124.169 57.5105 123.673ZM60.0338 123.661C60.0338 122.989 60.1698 122.401 60.4418 121.897C60.7138 121.385 61.0858 120.989 61.5578 120.709C62.0378 120.429 62.5698 120.289 63.1538 120.289C63.7298 120.289 64.2298 120.413 64.6538 120.661C65.0778 120.909 65.3938 121.221 65.6018 121.597V120.397H66.7058V126.973H65.6018V125.749C65.3858 126.133 65.0618 126.453 64.6298 126.709C64.2058 126.957 63.7098 127.081 63.1418 127.081C62.5578 127.081 62.0298 126.937 61.5578 126.649C61.0858 126.361 60.7138 125.957 60.4418 125.437C60.1698 124.917 60.0338 124.325 60.0338 123.661ZM65.6018 123.673C65.6018 123.177 65.5018 122.745 65.3018 122.377C65.1018 122.009 64.8298 121.729 64.4858 121.537C64.1498 121.337 63.7778 121.237 63.3698 121.237C62.9618 121.237 62.5898 121.333 62.2538 121.525C61.9178 121.717 61.6498 121.997 61.4498 122.365C61.2498 122.733 61.1498 123.165 61.1498 123.661C61.1498 124.165 61.2498 124.605 61.4498 124.981C61.6498 125.349 61.9178 125.633 62.2538 125.833C62.5898 126.025 62.9618 126.121 63.3698 126.121C63.7778 126.121 64.1498 126.025 64.4858 125.833C64.8298 125.633 65.1018 125.349 65.3018 124.981C65.5018 124.605 65.6018 124.169 65.6018 123.673ZM69.1212 119.329C68.9132 119.329 68.7372 119.257 68.5932 119.113C68.4572 118.969 68.3892 118.793 68.3892 118.585C68.3892 118.377 68.4572 118.201 68.5932 118.057C68.7372 117.913 68.9132 117.841 69.1212 117.841C69.3292 117.841 69.5012 117.913 69.6372 118.057C69.7812 118.201 69.8532 118.377 69.8532 118.585C69.8532 118.793 69.7812 118.969 69.6372 119.113C69.5012 119.257 69.3292 119.329 69.1212 119.329ZM69.6612 128.401C69.6612 128.985 69.5132 129.413 69.2172 129.685C68.9212 129.957 68.4892 130.093 67.9212 130.093H67.2852V129.169H67.7412C68.0452 129.169 68.2572 129.109 68.3772 128.989C68.5052 128.869 68.5692 128.665 68.5692 128.377V120.397H69.6612V128.401ZM71.0838 123.661C71.0838 122.989 71.2198 122.401 71.4918 121.897C71.7638 121.385 72.1358 120.989 72.6078 120.709C73.0878 120.429 73.6198 120.289 74.2038 120.289C74.7798 120.289 75.2798 120.413 75.7038 120.661C76.1278 120.909 76.4438 121.221 76.6518 121.597V120.397H77.7558V126.973H76.6518V125.749C76.4358 126.133 76.1118 126.453 75.6798 126.709C75.2558 126.957 74.7598 127.081 74.1918 127.081C73.6078 127.081 73.0798 126.937 72.6078 126.649C72.1358 126.361 71.7638 125.957 71.4918 125.437C71.2198 124.917 71.0838 124.325 71.0838 123.661ZM76.6518 123.673C76.6518 123.177 76.5518 122.745 76.3518 122.377C76.1518 122.009 75.8798 121.729 75.5358 121.537C75.1998 121.337 74.8278 121.237 74.4198 121.237C74.0118 121.237 73.6398 121.333 73.3038 121.525C72.9678 121.717 72.6998 121.997 72.4998 122.365C72.2998 122.733 72.1998 123.165 72.1998 123.661C72.1998 124.165 72.2998 124.605 72.4998 124.981C72.6998 125.349 72.9678 125.633 73.3038 125.833C73.6398 126.025 74.0118 126.121 74.4198 126.121C74.8278 126.121 75.1998 126.025 75.5358 125.833C75.8798 125.633 76.1518 125.349 76.3518 124.981C76.5518 124.605 76.6518 124.169 76.6518 123.673ZM80.6752 121.465C80.8672 121.089 81.1392 120.797 81.4912 120.589C81.8512 120.381 82.2872 120.277 82.7992 120.277V121.405H82.5112C81.2872 121.405 80.6752 122.069 80.6752 123.397V126.973H79.5832V120.397H80.6752V121.465ZM87.7137 126.973L85.1337 124.069V126.973H84.0417V118.093H85.1337V123.313L87.6657 120.397L89.1897 120.397L86.0937 123.673L89.2017 126.973H87.7137ZM89.7915 123.661C89.7915 122.989 89.9275 122.401 90.1995 121.897C90.4715 121.385 90.8435 120.989 91.3155 120.709C91.7955 120.429 92.3275 120.289 92.9115 120.289C93.4875 120.289 93.9875 120.413 94.4115 120.661C94.8355 120.909 95.1515 121.221 95.3595 121.597V120.397H96.4635V126.973H95.3595V125.749C95.1435 126.133 94.8195 126.453 94.3875 126.709C93.9635 126.957 93.4675 127.081 92.8995 127.081C92.3155 127.081 91.7875 126.937 91.3155 126.649C90.8435 126.361 90.4715 125.957 90.1995 125.437C89.9275 124.917 89.7915 124.325 89.7915 123.661ZM95.3595 123.673C95.3595 123.177 95.2595 122.745 95.0595 122.377C94.8595 122.009 94.5875 121.729 94.2435 121.537C93.9075 121.337 93.5355 121.237 93.1275 121.237C92.7195 121.237 92.3475 121.333 92.0115 121.525C91.6755 121.717 91.4075 121.997 91.2075 122.365C91.0075 122.733 90.9075 123.165 90.9075 123.661C90.9075 124.165 91.0075 124.605 91.2075 124.981C91.4075 125.349 91.6755 125.633 92.0115 125.833C92.3475 126.025 92.7195 126.121 93.1275 126.121C93.5355 126.121 93.9075 126.025 94.2435 125.833C94.5875 125.633 94.8595 125.349 95.0595 124.981C95.2595 124.605 95.3595 124.169 95.3595 123.673ZM101.495 120.277C102.295 120.277 102.943 120.521 103.439 121.009C103.935 121.489 104.183 122.185 104.183 123.097V126.973H103.103V123.253C103.103 122.597 102.939 122.097 102.611 121.753C102.283 121.401 101.835 121.225 101.267 121.225C100.691 121.225 100.231 121.405 99.8869 121.765C99.5509 122.125 99.3829 122.649 99.3829 123.337V126.973H98.2909V120.397H99.3829V121.333C99.5989 120.997 99.8909 120.737 100.259 120.553C100.635 120.369 101.047 120.277 101.495 120.277ZM109.153 120.277C109.953 120.277 110.601 120.521 111.097 121.009C111.593 121.489 111.841 122.185 111.841 123.097V126.973H110.761V123.253C110.761 122.597 110.597 122.097 110.269 121.753C109.941 121.401 109.493 121.225 108.925 121.225C108.349 121.225 107.889 121.405 107.545 121.765C107.209 122.125 107.041 122.649 107.041 123.337V126.973H105.949V120.397H107.041V121.333C107.257 120.997 107.549 120.737 107.917 120.553C108.293 120.369 108.705 120.277 109.153 120.277ZM119.27 120.397L115.31 130.069H114.182L115.478 126.901L112.826 120.397H114.038L116.102 125.725L118.142 120.397H119.27ZM119.942 123.661C119.942 122.989 120.078 122.401 120.35 121.897C120.622 121.385 120.994 120.989 121.466 120.709C121.946 120.429 122.478 120.289 123.062 120.289C123.638 120.289 124.138 120.413 124.562 120.661C124.986 120.909 125.302 121.221 125.51 121.597V120.397H126.614V126.973H125.51V125.749C125.294 126.133 124.97 126.453 124.538 126.709C124.114 126.957 123.618 127.081 123.05 127.081C122.466 127.081 121.938 126.937 121.466 126.649C120.994 126.361 120.622 125.957 120.35 125.437C120.078 124.917 119.942 124.325 119.942 123.661ZM125.51 123.673C125.51 123.177 125.41 122.745 125.21 122.377C125.01 122.009 124.738 121.729 124.394 121.537C124.058 121.337 123.686 121.237 123.278 121.237C122.87 121.237 122.498 121.333 122.162 121.525C121.826 121.717 121.558 121.997 121.358 122.365C121.158 122.733 121.058 123.165 121.058 123.661C121.058 124.165 121.158 124.605 121.358 124.981C121.558 125.349 121.826 125.633 122.162 125.833C122.498 126.025 122.87 126.121 123.278 126.121C123.686 126.121 124.058 126.025 124.394 125.833C124.738 125.633 125.01 125.349 125.21 124.981C125.41 124.605 125.51 124.169 125.51 123.673ZM134.431 129.205C133.663 128.453 133.063 127.497 132.631 126.337C132.207 125.177 131.995 123.925 131.995 122.581C131.995 121.205 132.219 119.921 132.667 118.729C133.123 117.529 133.771 116.541 134.611 115.765H135.751V115.873C134.855 116.713 134.179 117.725 133.723 118.909C133.275 120.085 133.051 121.309 133.051 122.581C133.051 123.821 133.263 125.005 133.687 126.133C134.119 127.261 134.747 128.249 135.571 129.097V129.205H134.431ZM143.498 118.609V126.973H142.406V123.181H138.146V126.973H137.054V118.609H138.146V122.281H142.406V118.609H143.498ZM149.749 126.973L147.757 123.553H146.437V126.973H145.345V118.609H148.045C148.677 118.609 149.209 118.717 149.641 118.933C150.081 119.149 150.409 119.441 150.625 119.809C150.841 120.177 150.949 120.597 150.949 121.069C150.949 121.645 150.781 122.153 150.445 122.593C150.117 123.033 149.621 123.325 148.957 123.469L151.057 126.973H149.749ZM146.437 122.677H148.045C148.637 122.677 149.081 122.533 149.377 122.245C149.673 121.949 149.821 121.557 149.821 121.069C149.821 120.573 149.673 120.189 149.377 119.917C149.089 119.645 148.645 119.509 148.045 119.509H146.437V122.677ZM159.997 122.665C160.301 122.713 160.577 122.837 160.825 123.037C161.081 123.237 161.281 123.485 161.425 123.781C161.577 124.077 161.653 124.393 161.653 124.729C161.653 125.153 161.545 125.537 161.329 125.881C161.113 126.217 160.797 126.485 160.381 126.685C159.973 126.877 159.489 126.973 158.929 126.973H155.809V118.609H158.809C159.377 118.609 159.861 118.705 160.261 118.897C160.661 119.081 160.961 119.333 161.161 119.653C161.361 119.973 161.461 120.333 161.461 120.733C161.461 121.229 161.325 121.641 161.053 121.969C160.789 122.289 160.437 122.521 159.997 122.665ZM156.901 122.221H158.737C159.249 122.221 159.645 122.101 159.925 121.861C160.205 121.621 160.345 121.289 160.345 120.865C160.345 120.441 160.205 120.109 159.925 119.869C159.645 119.629 159.241 119.509 158.713 119.509H156.901V122.221ZM158.833 126.073C159.377 126.073 159.801 125.945 160.105 125.689C160.409 125.433 160.561 125.077 160.561 124.621C160.561 124.157 160.401 123.793 160.081 123.529C159.761 123.257 159.333 123.121 158.797 123.121H156.901V126.073H158.833ZM168.982 120.397V126.973H167.89V126.001C167.682 126.337 167.39 126.601 167.014 126.793C166.646 126.977 166.238 127.069 165.79 127.069C165.278 127.069 164.818 126.965 164.41 126.757C164.002 126.541 163.678 126.221 163.438 125.797C163.206 125.373 163.09 124.857 163.09 124.249V120.397H164.17V124.105C164.17 124.753 164.334 125.253 164.662 125.605C164.99 125.949 165.438 126.121 166.006 126.121C166.59 126.121 167.05 125.941 167.386 125.581C167.722 125.221 167.89 124.697 167.89 124.009V120.397H168.982ZM174.48 126.973L171.9 124.069V126.973H170.808V118.093H171.9V123.313L174.432 120.397H175.956L172.86 123.673L175.968 126.973H174.48ZM180.229 120.277C180.725 120.277 181.173 120.385 181.573 120.601C181.973 120.809 182.285 121.125 182.509 121.549C182.741 121.973 182.857 122.489 182.857 123.097V126.973H181.777V123.253C181.777 122.597 181.613 122.097 181.285 121.753C180.957 121.401 180.509 121.225 179.941 121.225C179.365 121.225 178.905 121.405 178.561 121.765C178.225 122.125 178.057 122.649 178.057 123.337V126.973H176.965V118.093H178.057V121.333C178.273 120.997 178.569 120.737 178.945 120.553C179.329 120.369 179.757 120.277 180.229 120.277ZM187.491 127.081C186.875 127.081 186.315 126.941 185.811 126.661C185.315 126.381 184.923 125.985 184.635 125.473C184.355 124.953 184.215 124.353 184.215 123.673C184.215 123.001 184.359 122.409 184.647 121.897C184.943 121.377 185.343 120.981 185.847 120.709C186.351 120.429 186.915 120.289 187.539 120.289C188.163 120.289 188.727 120.429 189.231 120.709C189.735 120.981 190.131 121.373 190.419 121.885C190.715 122.397 190.863 122.993 190.863 123.673C190.863 124.353 190.711 124.953 190.407 125.473C190.111 125.985 189.707 126.381 189.195 126.661C188.683 126.941 188.115 127.081 187.491 127.081ZM187.491 126.121C187.883 126.121 188.251 126.029 188.595 125.845C188.939 125.661 189.215 125.385 189.423 125.017C189.639 124.649 189.747 124.201 189.747 123.673C189.747 123.145 189.643 122.697 189.435 122.329C189.227 121.961 188.955 121.689 188.619 121.513C188.283 121.329 187.919 121.237 187.527 121.237C187.127 121.237 186.759 121.329 186.423 121.513C186.095 121.689 185.831 121.961 185.631 122.329C185.431 122.697 185.331 123.145 185.331 123.673C185.331 124.209 185.427 124.661 185.619 125.029C185.819 125.397 186.083 125.673 186.411 125.857C186.739 126.033 187.099 126.121 187.491 126.121ZM193.373 121.465C193.565 121.089 193.837 120.797 194.189 120.589C194.549 120.381 194.985 120.277 195.497 120.277V121.405H195.209C193.985 121.405 193.373 122.069 193.373 123.397V126.973H192.281V120.397H193.373V121.465ZM197.304 119.329C197.096 119.329 196.92 119.257 196.776 119.113C196.632 118.969 196.56 118.793 196.56 118.585C196.56 118.377 196.632 118.201 196.776 118.057C196.92 117.913 197.096 117.841 197.304 117.841C197.504 117.841 197.672 117.913 197.808 118.057C197.952 118.201 198.024 118.377 198.024 118.585C198.024 118.793 197.952 118.969 197.808 119.113C197.672 119.257 197.504 119.329 197.304 119.329ZM197.832 120.397V126.973H196.74V120.397H197.832ZM199.327 129.205V129.097C200.151 128.249 200.775 127.261 201.199 126.133C201.631 125.005 201.847 123.821 201.847 122.581C201.847 121.309 201.619 120.085 201.163 118.909C200.715 117.725 200.043 116.713 199.147 115.873V115.765H200.287C201.127 116.541 201.771 117.529 202.219 118.729C202.675 119.921 202.903 121.205 202.903 122.581C202.903 123.925 202.687 125.177 202.255 126.337C201.831 127.497 201.235 128.453 200.467 129.205H199.327Z" fill="#0AA1DD"/>
<defs>
<clipPath id="clip0_2_3114">
<rect width="120.747" height="26.973" fill="white" transform="translate(24 40.0001)"/>
</clipPath>
<clipPath id="clip1_2_3114">
<rect width="20" height="20" fill="white" transform="translate(24 43.4866)"/>
</clipPath>
</defs>
</svg>
