<svg width="334" height="139" viewBox="0 0 334 139" fill="none" xmlns="http://www.w3.org/2000/svg">
<g filter="url(#filter0_d_1102_1110)">
<g clip-path="url(#clip0_1102_1110)">
<rect x="4" width="326" height="131" rx="10" fill="url(#paint0_linear_1102_1110)"/>
<path opacity="0.25" d="M260.035 160C309.14 160 348.947 150.731 348.947 139.297C348.947 127.863 309.14 118.594 260.035 118.594C210.931 118.594 171.124 127.863 171.124 139.297C171.124 150.731 210.931 160 260.035 160Z" fill="#042030"/>
<path d="M329.667 39.3868L260.035 63.1985L190.333 39.3868L157 87.8582L260.035 123.117L363 87.8582L329.667 39.3868Z" fill="#4E2999"/>
<path opacity="0.45" d="M169.147 85.8798L254.598 118.594L225.219 89.4833C225.219 89.4833 176.986 77.8247 169.147 85.8798Z" fill="#240F4F"/>
<path opacity="0.45" d="M350.924 85.8798L265.473 118.594L294.851 89.4833C294.781 89.4833 343.014 77.8247 350.924 85.8798Z" fill="#240F4F"/>
<path d="M260.035 123.117L157 87.8582V92.451L260.035 127.709L363 92.451V87.8582L260.035 123.117Z" fill="#994EF8"/>
<path d="M205.163 144.314L217.098 113.012L255.516 126.155L205.163 144.314Z" fill="#3B1E77"/>
<path opacity="0.45" d="M208.482 135.27L255.516 126.155L217.098 113.012L208.482 135.27Z" fill="#3B1E77"/>
<path d="M260.035 124.53L205.163 144.314L209.259 148.624L260.035 130.536L310.741 148.624L314.907 144.314L260.035 124.53Z" fill="#994EF8"/>
<path d="M314.907 144.314L302.902 113.012L264.484 126.155L314.907 144.314Z" fill="#3B1E77"/>
<path opacity="0.45" d="M311.518 135.27L264.484 126.155L302.902 113.012L311.518 135.27Z" fill="#3B1E77"/>
<path d="M260.035 130.536C262.102 130.536 263.778 128.859 263.778 126.791C263.778 124.723 262.102 123.046 260.035 123.046C257.968 123.046 256.292 124.723 256.292 126.791C256.292 128.859 257.968 130.536 260.035 130.536Z" fill="white" fill-opacity="0.5"/>
<path d="M326.701 39.3868L260.035 72.5961L193.37 39.3868C190.333 43.4143 165.898 84.184 165.898 84.184C166.181 84.184 166.393 84.2546 166.675 84.2546C227.974 90.4019 244.993 109.692 250.643 114.355C256.292 119.089 260.106 118.594 260.106 118.594C260.106 118.594 263.919 119.089 269.569 114.355C275.219 109.692 292.238 90.4019 353.537 84.2546C353.819 84.2546 354.031 84.184 354.314 84.184C354.172 84.184 329.667 43.485 326.701 39.3868Z" fill="#F5B304"/>
<path d="M354.172 84.184C353.89 84.184 353.678 84.2546 353.396 84.2546C292.097 90.4019 275.077 109.692 269.428 114.355C263.778 119.089 259.965 118.594 259.965 118.594C259.965 118.594 256.151 119.089 250.502 114.355C244.852 109.692 227.832 90.4019 166.534 84.2546C166.251 84.2546 166.039 84.184 165.757 84.184C165.263 84.9612 165.757 85.5265 165.757 85.5265C227.691 91.5324 244.146 110.893 249.795 115.627C255.445 120.29 259.894 119.937 259.894 119.937C259.894 119.937 264.343 120.29 269.993 115.627C275.642 110.963 292.097 91.6031 354.031 85.5265C354.172 85.5265 354.667 84.9612 354.172 84.184Z" fill="#994EF8"/>
<path d="M324.159 35.5006C290.049 27.3043 259.965 55.3555 259.965 55.3555C259.965 55.3555 229.88 27.3043 195.771 35.5006C195.771 35.5006 186.096 50.3388 172.748 75.5637C172.748 75.5637 239.908 83.1241 259.965 111.317C280.021 83.1241 347.181 75.5637 347.181 75.5637C333.834 50.3388 324.159 35.5006 324.159 35.5006Z" fill="#F5EFFB"/>
<path d="M347.181 75.5637C347.181 75.5637 280.021 83.1241 259.965 111.317C239.979 83.1241 172.819 75.5637 172.819 75.5637C172.819 75.5637 172.819 77.8247 169.076 82.2762C169.076 82.2762 230.022 86.657 252.196 111.953C257.422 117.888 259.965 117.181 259.965 117.181C259.965 117.181 262.578 117.888 267.733 111.953C289.837 86.657 350.853 82.2762 350.853 82.2762C347.181 77.7541 347.181 75.5637 347.181 75.5637Z" fill="#DFCBF4"/>
<path d="M320.345 38.4682C320.345 38.4682 294.851 31.9677 259.965 59.0297C225.149 32.0384 199.584 38.4682 199.584 38.4682L182.353 71.9602C234.753 75.5637 259.965 102.06 259.965 102.06C259.965 102.06 285.176 75.5637 337.577 71.9602L320.345 38.4682ZM260.035 98.8808C260.035 98.8808 236.448 74.7158 186.449 69.9817L200.926 39.8814C200.926 39.8814 225.996 35.006 260.035 60.5842C294.074 35.006 319.145 39.8814 319.145 39.8814L333.622 69.9817C283.623 74.7158 260.035 98.8808 260.035 98.8808Z" fill="#863ED5"/>
<path opacity="0.2" d="M266.462 84.2502C275.878 77.3022 305.303 61.9267 325.077 64.0464" stroke="#863ED5" stroke-width="3" stroke-linecap="round"/>
<path opacity="0.2" d="M266.462 64.753C274.819 58.2063 296.546 45.3792 316.602 46.4444" stroke="#863ED5" stroke-width="3" stroke-linecap="round"/>
<path opacity="0.2" d="M266.462 74.6451C275.525 67.5948 299.088 53.781 320.84 54.9282" stroke="#863ED5" stroke-width="3" stroke-linecap="round"/>
<path opacity="0.2" d="M254.456 84.2502C245.04 77.3022 215.615 61.9267 195.841 64.0464" stroke="#863ED5" stroke-width="3" stroke-linecap="round"/>
<path opacity="0.2" d="M254.456 64.753C246.1 58.2063 224.372 45.3792 204.316 46.4444" stroke="#863ED5" stroke-width="3" stroke-linecap="round"/>
<path opacity="0.2" d="M254.456 74.6451C245.393 67.5948 221.83 53.781 200.079 54.9282" stroke="#863ED5" stroke-width="3" stroke-linecap="round"/>
<path d="M260.035 55.3555C260.035 55.3555 260.742 52.8825 262.083 53.5891C262.083 53.5891 261.236 93.6521 262.648 109.268C263.001 113.154 266.391 118.453 267.733 120.432H265.967L265.473 122.057C265.473 122.057 260.247 113.224 260.035 109.762C258.976 94.2174 259.541 59.1004 260.035 55.3555Z" fill="#54DAF5"/>
</g>
</g>
<defs>
<filter id="filter0_d_1102_1110" x="0" y="0" width="334" height="139" filterUnits="userSpaceOnUse" color-interpolation-filters="sRGB">
<feFlood flood-opacity="0" result="BackgroundImageFix"/>
<feColorMatrix in="SourceAlpha" type="matrix" values="0 0 0 0 0 0 0 0 0 0 0 0 0 0 0 0 0 0 127 0" result="hardAlpha"/>
<feOffset dy="4"/>
<feGaussianBlur stdDeviation="2"/>
<feComposite in2="hardAlpha" operator="out"/>
<feColorMatrix type="matrix" values="0 0 0 0 0 0 0 0 0 0 0 0 0 0 0 0 0 0 0.25 0"/>
<feBlend mode="normal" in2="BackgroundImageFix" result="effect1_dropShadow_1102_1110"/>
<feBlend mode="normal" in="SourceGraphic" in2="effect1_dropShadow_1102_1110" result="shape"/>
</filter>
<linearGradient id="paint0_linear_1102_1110" x1="4" y1="0" x2="94.6452" y2="225.575" gradientUnits="userSpaceOnUse">
<stop stop-color="#98EDFA"/>
<stop offset="1" stop-color="#2620F2"/>
</linearGradient>
<clipPath id="clip0_1102_1110">
<rect x="4" width="326" height="131" rx="10" fill="white"/>
</clipPath>
</defs>
</svg>
