<svg width="375" height="70" viewBox="0 0 375 70" fill="none" xmlns="http://www.w3.org/2000/svg">
<rect width="374" height="69" transform="translate(0.124512 0.300049)" fill="#2155CD"/>
<path fill-rule="evenodd" clip-rule="evenodd" d="M2.29816 61.103C2.41513 61.2166 2.54904 61.306 2.7007 61.2997C2.97026 61.2885 3.27192 60.9376 3.50387 60.6678C3.57623 60.5836 3.6418 60.5074 3.6975 60.4517L6.02335 58.129L9.12449 55.032C9.24434 54.9123 9.36885 54.7936 9.49428 54.674C9.97615 54.2147 10.4715 53.7425 10.7673 53.1516C11.5093 51.6699 11.4301 50.048 10.6936 48.6167C10.4002 48.0467 10.0211 47.5275 9.56751 47.0682C9.44902 46.9482 9.32483 46.8084 9.19513 46.6623C8.78233 46.1973 8.31373 45.6695 7.79544 45.5197C7.79544 45.6191 7.79009 45.7258 7.78458 45.836C7.76523 46.2227 7.74372 46.6525 7.94307 46.9576C8.20147 47.3529 8.54039 47.694 8.87841 48.0342C9.50936 48.6691 10.1371 49.3009 10.232 50.2758C10.313 51.1081 10.243 52.1138 9.75214 52.8198C9.43625 53.2741 8.99453 53.6791 8.56542 54.0725C8.37619 54.246 8.1894 54.4173 8.01694 54.5895L4.9158 57.6865L3.36523 59.2351C3.32512 59.2751 3.28002 59.3271 3.23116 59.3835C3.07849 59.5595 2.88915 59.7778 2.7007 59.8065C2.56981 59.8265 2.4334 59.7637 2.29816 59.6563L2.29816 61.103ZM2.29816 41.9092C2.39185 41.8236 2.49079 41.7564 2.58995 41.7406C2.80654 41.7061 3.09501 42.0675 3.30171 42.3265C3.37088 42.4131 3.43089 42.4883 3.47599 42.5333C3.65002 42.7071 3.84025 42.926 4.04245 43.1586C4.60358 43.8042 5.25695 44.5559 5.9126 44.7455C5.9126 44.6411 5.91941 44.527 5.92645 44.409C5.94441 44.1083 5.96386 43.7825 5.87572 43.5288C5.77711 43.2453 5.53418 43.0183 5.30852 42.8074C5.24929 42.752 5.19124 42.6978 5.13731 42.6439L3.6975 41.206C3.64726 41.1559 3.58248 41.0804 3.50786 40.9936C3.22152 40.6602 2.79021 40.158 2.47919 40.2659C2.41776 40.2872 2.35722 40.324 2.29816 40.37V41.9092ZM2.29816 29.2538C2.43044 29.3423 2.56645 29.3875 2.7007 29.3526C2.88925 29.3035 3.00571 29.1448 3.11937 28.9899C3.16348 28.9298 3.20717 28.8703 3.25448 28.818C3.55655 28.4839 3.88376 28.1679 4.21 27.853C4.37276 27.6958 4.53527 27.5389 4.6943 27.3801L8.57072 23.5088C8.73708 23.3427 8.91923 23.1762 9.10479 23.0065C9.60337 22.5507 10.1266 22.0723 10.4351 21.5179C10.9754 20.5467 11.2288 19.6443 11.2288 18.5315C11.2288 18.4751 11.2333 18.4059 11.2382 18.3298C11.2571 18.0343 11.2828 17.6349 11.0812 17.4807C10.9422 17.3744 10.6584 17.3965 10.4318 17.4142C10.3564 17.42 10.2874 17.4254 10.232 17.4254C10.232 17.6109 10.2414 17.8061 10.251 18.005C10.2739 18.483 10.2979 18.9819 10.1952 19.4164C9.87492 20.7706 8.94829 21.695 7.9966 22.6444C7.96648 22.6744 7.93634 22.7045 7.90619 22.7346L5.13731 25.4998L3.36523 27.2695C3.32366 27.311 3.27626 27.3654 3.22448 27.4249C3.04533 27.6305 2.81377 27.8963 2.58995 27.8963C2.49705 27.8963 2.39787 27.8506 2.29816 27.7795L2.29816 29.2538ZM2.29816 9.85539C2.38811 9.79478 2.47586 9.76043 2.55307 9.77502C2.64882 9.79314 2.75643 9.92583 2.84065 10.0297C2.87157 10.0678 2.89934 10.1021 2.92222 10.1253L3.91901 11.1208L7.1309 14.3284C7.26524 14.4626 7.4056 14.6231 7.5516 14.7902C7.89816 15.1866 8.27649 15.6194 8.68147 15.8216C8.95879 15.9601 9.29182 15.8365 9.58274 15.7286C9.65456 15.702 9.72381 15.6763 9.78903 15.6557C9.64853 15.1709 9.23955 14.8455 8.83936 14.527C8.66695 14.3899 8.49618 14.254 8.34921 14.1072C8.10261 13.8609 7.86802 13.5991 7.63286 13.3367C7.39655 13.073 7.15965 12.8086 6.9094 12.5587L3.6975 9.35107C3.63648 9.29014 3.55876 9.19885 3.4704 9.09506C3.18294 8.75742 2.78289 8.28753 2.47919 8.3003C2.41835 8.30288 2.3578 8.32412 2.29816 8.35851L2.29816 9.85539ZM8.6326 38.5202C9.86869 38.4457 11.5448 38.3445 11.8934 39.5469H8.68147C8.60799 39.5469 8.51944 39.5408 8.42348 39.5342C8.09335 39.5113 7.67551 39.4824 7.48167 39.676C7.33929 39.8181 7.34507 40.0244 7.35042 40.2158C7.35142 40.2516 7.35241 40.2869 7.35241 40.3212V41.9803V46.7364C7.35241 46.9685 7.34251 47.2093 7.33247 47.4533C7.30866 48.0323 7.28411 48.6293 7.3893 49.1698C7.54712 49.9803 7.87994 50.7202 8.38609 51.3819C8.48261 51.5081 8.64537 51.6355 8.81251 51.7664C9.06001 51.9602 9.31711 52.1616 9.38289 52.3774C9.45455 52.6125 9.20978 52.8864 9.01374 52.9857C8.67025 53.1597 8.30253 52.8335 8.05192 52.6112C8.03999 52.6006 8.02833 52.5902 8.01694 52.5802C7.30302 51.9498 6.80329 50.9553 6.54025 50.0546C6.30742 49.2574 6.32682 48.3769 6.34556 47.5263C6.35062 47.297 6.35562 47.0698 6.35562 46.847V41.5379V39.4363C6.35562 39.3863 6.35135 39.3261 6.34674 39.2612C6.33248 39.0602 6.31498 38.8137 6.411 38.6805C6.57409 38.4542 7.18876 38.5017 7.60843 38.5341C7.72882 38.5434 7.83316 38.5515 7.90619 38.5515C8.11532 38.5515 8.36354 38.5365 8.6326 38.5202ZM13.7762 31.0301H6.35562V27.8225L6.3925 26.3846L7.35241 25.4997V28.7074C7.35241 28.7808 7.34628 28.8692 7.33963 28.965C7.31676 29.2947 7.28782 29.712 7.48167 29.9056C7.63488 30.0587 7.87896 30.0482 8.09505 30.0389C8.14482 30.0367 8.1931 30.0347 8.23845 30.0347H9.89978H14.773C14.9826 30.0347 15.1974 30.0411 15.4147 30.0475C16.131 30.0689 16.874 30.091 17.5419 29.8872C18.2026 29.6856 18.919 29.2937 19.4247 28.818C19.5151 28.7329 19.5908 28.629 19.6664 28.5251C19.7609 28.3952 19.8553 28.2655 19.9785 28.1728C20.1839 28.0181 20.4377 28.0332 20.643 28.1912C21.0891 28.5344 20.6827 28.9957 20.4116 29.3035C20.4024 29.3139 20.3934 29.3242 20.3846 29.3342C19.7213 30.0892 18.7361 30.6398 17.7634 30.8827C16.8225 31.1176 15.7907 31.0844 14.7895 31.0521C14.4465 31.0411 14.1071 31.0301 13.7762 31.0301ZM7.3329 21.6283C7.33533 22.4301 7.33773 23.2249 6.35562 23.5088V23.5088C6.35562 23.2741 6.35324 23.0392 6.35087 22.8043C6.33896 21.6277 6.32707 20.452 6.61401 19.3057C6.96444 17.9059 8.21043 16.6056 9.56751 16.135C10.1308 15.9396 10.7635 15.9586 11.3732 15.977C11.5492 15.9823 11.7234 15.9875 11.8934 15.9875H16.2128H19.8677C19.9528 15.9875 20.0704 15.9775 20.2026 15.9661C20.5789 15.9339 21.073 15.8916 21.2707 16.0428C21.462 16.1892 21.4067 16.4049 21.3541 16.6101C21.3306 16.702 21.3075 16.7919 21.3075 16.8724V18.5315V26.274L20.3661 25.8316L20.3107 23.8407V16.983H12.8902C12.6854 16.983 12.4833 16.9796 12.2839 16.9762C11.0196 16.955 9.86296 16.9356 8.79223 17.7941C7.82113 18.5727 7.46749 19.7825 7.35241 20.9648C7.33154 21.1792 7.33222 21.404 7.3329 21.6283ZM12.3584 31.4707C12.4272 31.4717 12.494 31.4726 12.5579 31.4726C12.3681 32.1273 11.6154 32.7799 10.9689 33.3402C10.736 33.5422 10.5168 33.7321 10.3428 33.9059C10.2979 33.9507 10.2308 34.0081 10.1539 34.0737C9.87956 34.308 9.48132 34.6481 9.53063 34.9014C9.56133 35.0591 9.73861 35.2134 9.88456 35.3404C9.93186 35.3815 9.97586 35.4198 10.0105 35.4544L11.2288 36.6711L14.5515 39.9894C14.6869 40.1246 14.8215 40.2649 14.9572 40.4063C15.4745 40.9453 16.0071 41.5003 16.6558 41.8512C17.5552 42.3378 18.4182 42.5064 19.4247 42.4227C19.7134 42.3987 19.9283 42.4445 19.9785 42.7545C20.0701 43.3203 19.8004 43.3613 19.4147 43.4198C19.3473 43.4301 19.2763 43.4408 19.2032 43.455C18.2836 43.6336 17.0228 43.3002 16.2128 42.8283C15.5773 42.458 15.0788 41.9538 14.5727 41.4418C14.3845 41.2515 14.1954 41.0601 13.9977 40.8742C13.1646 40.0904 12.3612 39.272 11.5564 38.4522C11.1535 38.0418 10.7503 37.6311 10.3428 37.2242C10.1584 37.04 9.97517 36.8544 9.79189 36.6688C9.42513 36.2973 9.05818 35.9256 8.68147 35.5651C8.62103 35.5072 8.5427 35.4496 8.46157 35.39C8.30752 35.2767 8.14335 35.156 8.07232 35.012C7.89539 34.653 8.43788 34.1869 8.79714 33.8782C8.8845 33.8031 8.96103 33.7374 9.01374 33.6847C9.19987 33.4988 9.39499 33.2746 9.59807 33.0413C10.0666 32.5029 10.5775 31.9159 11.1181 31.6385C11.4685 31.4587 11.948 31.4652 12.3584 31.4707ZM13.174 53.6125C12.4779 53.6392 11.7527 53.6669 11.1181 53.4835C11.3291 52.4823 12.087 52.4848 12.9681 52.4877C13.0156 52.4878 13.0635 52.488 13.1117 52.488H18.4279C18.4839 52.488 18.5399 52.4879 18.5958 52.4878C18.9475 52.4873 19.2976 52.4868 19.6462 52.5064C19.6949 52.5092 19.7487 52.5174 19.8048 52.5259C19.975 52.5518 20.1656 52.5809 20.2923 52.4696C20.4497 52.3312 20.437 52.0717 20.4264 51.8564C20.4239 51.8057 20.4215 51.7574 20.4215 51.7137V49.5016V44.303L20.4215 44.2644C20.4216 42.878 20.4217 41.5219 19.2032 40.5792C18.3076 39.8865 17.3131 39.6538 16.2128 39.5469C16.0027 39.5265 15.8053 39.521 15.6191 39.5158C14.9092 39.4959 14.3615 39.4806 13.887 38.6621C14.5911 38.366 15.9028 38.479 16.6558 38.6252C16.876 38.6679 17.0894 38.7008 17.2986 38.733C17.9136 38.8277 18.4913 38.9167 19.0924 39.2336C20.1962 39.8154 21.2933 41.1386 21.4183 42.4227C21.4468 42.7149 21.4325 43.0112 21.4183 43.3076C21.4041 43.6039 21.3898 43.9003 21.4183 44.1924C21.5406 45.448 21.5358 46.7159 21.5309 47.9854C21.53 48.2326 21.5291 48.48 21.5291 48.7273V52.1562C21.5291 52.2391 21.5383 52.3498 21.5486 52.4728C21.5777 52.8214 21.6151 53.2689 21.4737 53.465C21.3658 53.6147 21.153 53.6053 20.9735 53.5974C20.9352 53.5957 20.8984 53.5941 20.8645 53.5941H18.9817H13.887C13.6563 53.5941 13.4169 53.6032 13.174 53.6125ZM13.6701 29.6061C13.552 29.5991 13.4377 29.5922 13.3332 29.5922C13.4832 29.0746 14.0117 28.6067 14.4773 28.1944C14.6235 28.0649 14.7636 27.9409 14.8838 27.8225C15.3468 27.3665 15.8711 26.9998 16.4343 26.6796C17.7061 25.9564 19.6852 25.909 20.9753 26.6427C21.4909 26.9359 21.9221 27.3951 22.3391 27.8392C22.4759 27.9849 22.6111 28.1289 22.7474 28.265L25.9592 31.4726L28.1743 33.6847C28.2357 33.746 28.3161 33.8153 28.4034 33.8904C28.6698 34.1199 28.9997 34.4039 29.0419 34.6802C29.0921 35.0076 28.6276 35.4055 28.2965 35.6892C28.2036 35.7688 28.1212 35.8394 28.0636 35.8969L24.8517 39.1045L22.8581 41.0954C22.7906 41.1628 22.7246 41.2331 22.6585 41.3033C22.3916 41.5872 22.1234 41.8725 21.7506 41.9803C21.7293 41.9131 21.7007 41.841 21.6711 41.7663C21.5982 41.5824 21.5192 41.3833 21.529 41.206C21.556 40.7215 22.1212 40.2154 22.5539 39.828C22.6688 39.725 22.7745 39.6305 22.8581 39.5469C23.2257 39.1799 23.5892 38.806 23.9531 38.4318C24.6821 37.6821 25.4128 36.9308 26.1808 36.2287C26.2749 36.1427 26.4106 36.0379 26.5617 35.9213C26.9937 35.5879 27.5514 35.1576 27.6206 34.7908C27.6697 34.5304 27.3591 34.2611 27.1224 34.056C27.0588 34.0009 27.0006 33.9504 26.9561 33.9059L24.8517 31.8044C24.594 31.547 24.3373 31.2882 24.0806 31.0292C23.3265 30.2686 22.5717 29.5074 21.7874 28.7812C20.5758 27.659 19.2948 26.6985 17.5419 27.3063C16.8361 27.5511 16.1819 28.0746 15.659 28.5968C15.5829 28.6728 15.5051 28.7585 15.4248 28.8468C15.1684 29.129 14.8866 29.4392 14.5515 29.5554C14.2975 29.6434 13.9712 29.624 13.6701 29.6061Z" fill="white"/>
<path d="M56.1257 31.188V38.8H55.1247V33.124L52.5947 38.8H51.8907L49.3497 33.113V38.8H48.3487V31.188H49.4267L52.2427 37.48L55.0587 31.188H56.1257ZM63.3233 35.555C63.3233 35.7457 63.3123 35.9474 63.2903 36.16H58.4723C58.509 36.754 58.7107 37.2197 59.0773 37.557C59.4513 37.887 59.9023 38.052 60.4303 38.052C60.863 38.052 61.2223 37.953 61.5083 37.755C61.8017 37.5497 62.007 37.2784 62.1243 36.941H63.2023C63.041 37.5204 62.7183 37.9934 62.2343 38.36C61.7503 38.7194 61.149 38.899 60.4303 38.899C59.8583 38.899 59.345 38.7707 58.8903 38.514C58.443 38.2574 58.091 37.8944 57.8343 37.425C57.5777 36.9484 57.4493 36.3984 57.4493 35.775C57.4493 35.1517 57.574 34.6054 57.8233 34.136C58.0727 33.6667 58.421 33.3074 58.8683 33.058C59.323 32.8014 59.8437 32.673 60.4303 32.673C61.0023 32.673 61.5083 32.7977 61.9483 33.047C62.3883 33.2964 62.7257 33.641 62.9603 34.081C63.2023 34.5137 63.3233 35.005 63.3233 35.555ZM62.2893 35.346C62.2893 34.9647 62.205 34.6384 62.0363 34.367C61.8677 34.0884 61.6367 33.8794 61.3433 33.74C61.0573 33.5934 60.7383 33.52 60.3863 33.52C59.8803 33.52 59.4477 33.6814 59.0883 34.004C58.7363 34.3267 58.5347 34.774 58.4833 35.346H62.2893ZM68.0106 38.8L65.6456 36.138V38.8H64.6446V30.66H65.6456V35.445L67.9666 32.772H69.3636L66.5256 35.775L69.3746 38.8H68.0106ZM73.6717 38.8L71.3067 36.138V38.8H70.3057V30.66H71.3067V35.445L73.6277 32.772H75.0247L72.1867 35.775L75.0357 38.8H73.6717ZM75.5929 35.764C75.5929 35.148 75.7175 34.609 75.9669 34.147C76.2162 33.6777 76.5572 33.3147 76.9899 33.058C77.4299 32.8014 77.9175 32.673 78.4529 32.673C78.9809 32.673 79.4392 32.7867 79.8279 33.014C80.2165 33.2414 80.5062 33.5274 80.6969 33.872V32.772H81.7089V38.8H80.6969V37.678C80.4989 38.03 80.2019 38.3234 79.8059 38.558C79.4172 38.7854 78.9625 38.899 78.4419 38.899C77.9065 38.899 77.4225 38.767 76.9899 38.503C76.5572 38.239 76.2162 37.8687 75.9669 37.392C75.7175 36.9154 75.5929 36.3727 75.5929 35.764ZM80.6969 35.775C80.6969 35.3204 80.6052 34.9244 80.4219 34.587C80.2385 34.2497 79.9892 33.993 79.6739 33.817C79.3659 33.6337 79.0249 33.542 78.6509 33.542C78.2769 33.542 77.9359 33.63 77.6279 33.806C77.3199 33.982 77.0742 34.2387 76.8909 34.576C76.7075 34.9134 76.6159 35.3094 76.6159 35.764C76.6159 36.226 76.7075 36.6294 76.8909 36.974C77.0742 37.3114 77.3199 37.5717 77.6279 37.755C77.9359 37.931 78.2769 38.019 78.6509 38.019C79.0249 38.019 79.3659 37.931 79.6739 37.755C79.9892 37.5717 80.2385 37.3114 80.4219 36.974C80.6052 36.6294 80.6969 36.2297 80.6969 35.775ZM86.3925 32.662C86.8471 32.662 87.2578 32.761 87.6245 32.959C87.9911 33.1497 88.2771 33.4394 88.4825 33.828C88.6951 34.2167 88.8015 34.6897 88.8015 35.247V38.8H87.8115V35.39C87.8115 34.7887 87.6611 34.3304 87.3605 34.015C87.0598 33.6924 86.6491 33.531 86.1285 33.531C85.6005 33.531 85.1788 33.696 84.8635 34.026C84.5555 34.356 84.4015 34.8364 84.4015 35.467V38.8H83.4005V30.66H84.4015V33.63C84.5995 33.322 84.8708 33.0837 85.2155 32.915C85.5675 32.7464 85.9598 32.662 86.3925 32.662Z" fill="#2155CD"/>
<g clip-path="url(#clip0_103_282)">
<path fill-rule="evenodd" clip-rule="evenodd" d="M281.298 34.627V34.7676V34.9082C281.298 38.1642 279.731 41.3013 276.627 44.2327V48.3109C276.627 48.6138 276.299 48.8517 275.881 48.8517H270.076C269.569 49.133 269.077 49.3818 268.584 49.6306V50.3986C268.584 54.1522 264.361 57.2027 259.183 57.2027L130.176 57.2027C124.998 57.2027 120.775 54.1522 120.775 50.3986V49.6306C120.297 49.3818 119.805 49.133 119.298 48.8517H113.478C113.06 48.8517 112.732 48.6138 112.732 48.3109V44.2327C109.643 41.3013 108.061 38.1642 108.061 34.9082V34.7676V34.627C108.061 31.3818 109.643 28.2448 112.732 25.3133V21.2351C112.732 20.9323 113.06 20.6943 113.478 20.6943H119.298C119.805 20.413 120.297 20.1534 120.775 19.9154V19.1474C120.775 15.3938 124.998 12.3325 130.176 12.3325L259.183 12.3325C264.361 12.3325 268.584 15.3938 268.584 19.1474V19.9154C269.077 20.1534 269.569 20.413 270.076 20.6943H275.881C276.299 20.6943 276.627 20.9323 276.627 21.2351V25.3133C279.731 28.2448 281.298 31.3818 281.298 34.627ZM279.806 34.7676V34.627C279.806 31.5657 278.284 28.6126 275.299 25.8325C275.195 25.7351 275.135 25.6162 275.135 25.4972V21.776H269.823C269.659 21.776 269.494 21.7327 269.375 21.657C268.704 21.2892 268.062 20.9647 267.42 20.651C267.211 20.5537 267.092 20.3806 267.092 20.1967V19.1474C267.092 15.9887 263.54 13.4142 259.183 13.4142L130.176 13.4142C125.819 13.4142 122.267 15.9887 122.267 19.1474V20.1967C122.267 20.3806 122.148 20.5537 121.939 20.651C121.297 20.9647 120.67 21.2892 119.999 21.657C119.865 21.7327 119.7 21.776 119.536 21.776H114.224V25.4972C114.224 25.6162 114.164 25.7351 114.06 25.8325C111.075 28.6126 109.553 31.5657 109.553 34.627V34.7676V34.9082C109.553 37.9695 111.075 40.9335 114.06 43.7135C114.164 43.8109 114.224 43.9299 114.224 44.0489V47.77H119.536C119.7 47.77 119.865 47.8133 119.999 47.8782C120.67 48.2568 121.312 48.5813 121.939 48.895C122.148 48.9924 122.267 49.1654 122.267 49.3385V50.3986C122.267 53.5573 125.819 56.121 130.176 56.121L259.183 56.121C263.54 56.121 267.092 53.5573 267.092 50.3986V49.3385C267.092 49.1654 267.211 48.9924 267.42 48.895C268.062 48.5813 268.704 48.2568 269.375 47.8782C269.494 47.8133 269.659 47.77 269.823 47.77H275.135V44.0489C275.135 43.9299 275.195 43.8109 275.299 43.7135C278.284 40.9335 279.806 37.9695 279.806 34.9082V34.7784C279.806 34.7784 279.806 34.7748 279.806 34.7676Z" fill="white"/>
<path fill-rule="evenodd" clip-rule="evenodd" d="M278.448 34.627V34.9082C278.448 37.7532 277.03 40.5116 274.24 43.1077C273.941 43.3782 273.792 43.7135 273.792 44.0488V46.6558C273.792 46.7315 273.703 46.7964 273.598 46.7964H269.823C269.36 46.7964 268.912 46.9046 268.554 47.0993C267.898 47.4563 267.286 47.7808 266.674 48.0729C266.092 48.3649 265.749 48.8301 265.749 49.3385V50.3986C265.749 53.0164 262.794 55.1474 259.183 55.1474L130.176 55.1474C126.565 55.1474 123.625 53.0164 123.625 50.3986V49.3385C123.625 48.8301 123.282 48.3649 122.685 48.0729C122.073 47.7808 121.461 47.4563 120.805 47.0993C120.446 46.9046 119.999 46.7964 119.536 46.7964H115.761C115.656 46.7964 115.582 46.7315 115.582 46.6558V44.0488C115.582 43.7135 115.417 43.3782 115.134 43.1077C112.328 40.5116 110.911 37.7532 110.911 34.9082V34.627C110.911 31.7928 112.328 29.0344 115.134 26.4274C115.417 26.1678 115.582 25.8325 115.582 25.4972V22.8902C115.582 22.8145 115.656 22.7496 115.761 22.7496H119.536C119.999 22.7496 120.446 22.6414 120.805 22.4467C121.461 22.0897 122.073 21.7652 122.7 21.4623C123.282 21.1811 123.625 20.7051 123.625 20.1967V19.1474C123.625 16.5296 126.565 14.3986 130.176 14.3986L259.183 14.3986C262.794 14.3986 265.749 16.5296 265.749 19.1474V20.1967C265.749 20.7051 266.092 21.1811 266.674 21.4623C267.286 21.7652 267.913 22.0897 268.554 22.4467C268.912 22.6414 269.375 22.7496 269.823 22.7496H273.598C273.703 22.7496 273.792 22.8145 273.792 22.8902V25.4972C273.792 25.8325 273.941 26.1678 274.24 26.4274C277.03 29.0344 278.448 31.7928 278.448 34.627ZM273.419 46.526V44.0488C273.419 43.6486 273.598 43.2592 273.941 42.9455C276.687 40.3926 278.075 37.6883 278.075 34.9082V34.627C278.075 31.8577 276.687 29.1534 273.941 26.6005C273.598 26.2868 273.419 25.8974 273.419 25.4972V23.02H269.823C269.285 23.02 268.763 22.8902 268.33 22.663C267.689 22.306 267.077 21.9815 266.465 21.6895C265.779 21.3541 265.376 20.8024 265.376 20.1967V19.1474C265.376 16.681 262.6 14.669 259.183 14.669L130.176 14.669C126.774 14.669 123.998 16.681 123.998 19.1474V20.1967C123.998 20.8024 123.58 21.3541 122.894 21.6895C122.282 21.9815 121.685 22.306 121.028 22.663C120.611 22.8902 120.073 23.02 119.536 23.02H115.955V25.4972C115.955 25.8974 115.761 26.2868 115.432 26.6005C112.672 29.1534 111.284 31.8577 111.284 34.627V34.9082C111.284 37.6883 112.672 40.3926 115.432 42.9455C115.761 43.2592 115.955 43.6486 115.955 44.0488V46.526H119.536C120.073 46.526 120.611 46.6558 121.028 46.883C121.685 47.2399 122.297 47.5536 122.894 47.8565C123.58 48.1811 123.998 48.7436 123.998 49.3385V50.3986C123.998 52.8649 126.774 54.877 130.176 54.877L259.183 54.877C262.6 54.877 265.376 52.8649 265.376 50.3986V49.3385C265.376 48.7436 265.779 48.1811 266.465 47.8565C267.077 47.5645 267.674 47.2399 268.33 46.883C268.763 46.6558 269.285 46.526 269.823 46.526H273.419Z" fill="white"/>
</g>
<path d="M159.866 32.552C159.866 33.0747 159.74 33.5647 159.488 34.022C159.246 34.4794 158.858 34.848 158.326 35.128C157.804 35.408 157.141 35.548 156.338 35.548H154.7V39.3H152.74V29.528H156.338C157.094 29.528 157.738 29.6587 158.27 29.92C158.802 30.1814 159.199 30.5407 159.46 30.998C159.731 31.4554 159.866 31.9734 159.866 32.552ZM156.254 33.966C156.796 33.966 157.197 33.8447 157.458 33.602C157.72 33.35 157.85 33 157.85 32.552C157.85 31.6 157.318 31.124 156.254 31.124H154.7V33.966H156.254ZM168.433 35.254C168.433 35.534 168.414 35.786 168.377 36.01H162.707C162.754 36.57 162.95 37.0087 163.295 37.326C163.64 37.6434 164.065 37.802 164.569 37.802C165.297 37.802 165.815 37.4894 166.123 36.864H168.237C168.013 37.6107 167.584 38.2267 166.949 38.712C166.314 39.188 165.535 39.426 164.611 39.426C163.864 39.426 163.192 39.2627 162.595 38.936C162.007 38.6 161.545 38.1287 161.209 37.522C160.882 36.9154 160.719 36.2154 160.719 35.422C160.719 34.6194 160.882 33.9147 161.209 33.308C161.536 32.7014 161.993 32.2347 162.581 31.908C163.169 31.5814 163.846 31.418 164.611 31.418C165.348 31.418 166.006 31.5767 166.585 31.894C167.173 32.2114 167.626 32.664 167.943 33.252C168.27 33.8307 168.433 34.498 168.433 35.254ZM166.403 34.694C166.394 34.19 166.212 33.7887 165.857 33.49C165.502 33.182 165.068 33.028 164.555 33.028C164.07 33.028 163.659 33.1774 163.323 33.476C162.996 33.7654 162.796 34.1714 162.721 34.694H166.403ZM179.461 31.432C180.413 31.432 181.178 31.726 181.757 32.314C182.345 32.8927 182.639 33.7047 182.639 34.75V39.3H180.679V35.016C180.679 34.4094 180.525 33.9474 180.217 33.63C179.909 33.3034 179.489 33.14 178.957 33.14C178.425 33.14 178 33.3034 177.683 33.63C177.375 33.9474 177.221 34.4094 177.221 35.016V39.3H175.261V35.016C175.261 34.4094 175.107 33.9474 174.799 33.63C174.491 33.3034 174.071 33.14 173.539 33.14C172.997 33.14 172.568 33.3034 172.251 33.63C171.943 33.9474 171.789 34.4094 171.789 35.016V39.3H169.829V31.544H171.789V32.482C172.041 32.1554 172.363 31.8987 172.755 31.712C173.156 31.5254 173.595 31.432 174.071 31.432C174.677 31.432 175.219 31.5627 175.695 31.824C176.171 32.076 176.539 32.44 176.801 32.916C177.053 32.468 177.417 32.1087 177.893 31.838C178.378 31.5674 178.901 31.432 179.461 31.432ZM186.423 32.678C186.675 32.3047 187.021 32.0014 187.459 31.768C187.907 31.5347 188.416 31.418 188.985 31.418C189.648 31.418 190.245 31.5814 190.777 31.908C191.319 32.2347 191.743 32.7014 192.051 33.308C192.369 33.9054 192.527 34.6007 192.527 35.394C192.527 36.1874 192.369 36.892 192.051 37.508C191.743 38.1147 191.319 38.586 190.777 38.922C190.245 39.258 189.648 39.426 188.985 39.426C188.407 39.426 187.898 39.314 187.459 39.09C187.03 38.8567 186.685 38.558 186.423 38.194V39.3H184.463V28.94H186.423V32.678ZM190.525 35.394C190.525 34.9274 190.427 34.526 190.231 34.19C190.045 33.8447 189.793 33.5834 189.475 33.406C189.167 33.2287 188.831 33.14 188.467 33.14C188.113 33.14 187.777 33.2334 187.459 33.42C187.151 33.5974 186.899 33.8587 186.703 34.204C186.517 34.5494 186.423 34.9554 186.423 35.422C186.423 35.8887 186.517 36.2947 186.703 36.64C186.899 36.9854 187.151 37.2514 187.459 37.438C187.777 37.6154 188.113 37.704 188.467 37.704C188.831 37.704 189.167 37.6107 189.475 37.424C189.793 37.2374 190.045 36.9714 190.231 36.626C190.427 36.2807 190.525 35.87 190.525 35.394ZM201.239 31.544V39.3H199.265V38.32C199.013 38.656 198.681 38.922 198.271 39.118C197.869 39.3047 197.431 39.398 196.955 39.398C196.348 39.398 195.811 39.272 195.345 39.02C194.878 38.7587 194.509 38.3807 194.239 37.886C193.977 37.382 193.847 36.7847 193.847 36.094V31.544H195.807V35.814C195.807 36.43 195.961 36.906 196.269 37.242C196.577 37.5687 196.997 37.732 197.529 37.732C198.07 37.732 198.495 37.5687 198.803 37.242C199.111 36.906 199.265 36.43 199.265 35.814V31.544H201.239ZM207.73 39.3L205.098 35.996V39.3H203.138V28.94H205.098V34.834L207.702 31.544H210.25L206.834 35.436L210.278 39.3H207.73ZM210.774 35.394C210.774 34.61 210.928 33.9147 211.236 33.308C211.554 32.7014 211.978 32.2347 212.51 31.908C213.052 31.5814 213.654 31.418 214.316 31.418C214.895 31.418 215.399 31.5347 215.828 31.768C216.267 32.0014 216.617 32.2954 216.878 32.65V31.544H218.852V39.3H216.878V38.166C216.626 38.53 216.276 38.8334 215.828 39.076C215.39 39.3094 214.881 39.426 214.302 39.426C213.649 39.426 213.052 39.258 212.51 38.922C211.978 38.586 211.554 38.1147 211.236 37.508C210.928 36.892 210.774 36.1874 210.774 35.394ZM216.878 35.422C216.878 34.946 216.785 34.54 216.598 34.204C216.412 33.8587 216.16 33.5974 215.842 33.42C215.525 33.2334 215.184 33.14 214.82 33.14C214.456 33.14 214.12 33.2287 213.812 33.406C213.504 33.5834 213.252 33.8447 213.056 34.19C212.87 34.526 212.776 34.9274 212.776 35.394C212.776 35.8607 212.87 36.2714 213.056 36.626C213.252 36.9714 213.504 37.2374 213.812 37.424C214.13 37.6107 214.466 37.704 214.82 37.704C215.184 37.704 215.525 37.6154 215.842 37.438C216.16 37.2514 216.412 36.99 216.598 36.654C216.785 36.3087 216.878 35.898 216.878 35.422ZM220.228 35.394C220.228 34.61 220.382 33.9147 220.69 33.308C221.007 32.7014 221.432 32.2347 221.964 31.908C222.505 31.5814 223.107 31.418 223.77 31.418C224.348 31.418 224.852 31.5347 225.282 31.768C225.72 32.0014 226.07 32.2954 226.332 32.65V31.544H228.306V39.3H226.332V38.166C226.08 38.53 225.73 38.8334 225.282 39.076C224.843 39.3094 224.334 39.426 223.756 39.426C223.102 39.426 222.505 39.258 221.964 38.922C221.432 38.586 221.007 38.1147 220.69 37.508C220.382 36.892 220.228 36.1874 220.228 35.394ZM226.332 35.422C226.332 34.946 226.238 34.54 226.052 34.204C225.865 33.8587 225.613 33.5974 225.296 33.42C224.978 33.2334 224.638 33.14 224.274 33.14C223.91 33.14 223.574 33.2287 223.266 33.406C222.958 33.5834 222.706 33.8447 222.51 34.19C222.323 34.526 222.23 34.9274 222.23 35.394C222.23 35.8607 222.323 36.2714 222.51 36.626C222.706 36.9714 222.958 37.2374 223.266 37.424C223.583 37.6107 223.919 37.704 224.274 37.704C224.638 37.704 224.978 37.6154 225.296 37.438C225.613 37.2514 225.865 36.99 226.052 36.654C226.238 36.3087 226.332 35.898 226.332 35.422ZM234.483 31.432C235.407 31.432 236.154 31.726 236.723 32.314C237.292 32.8927 237.577 33.7047 237.577 34.75V39.3H235.617V35.016C235.617 34.4 235.463 33.9287 235.155 33.602C234.847 33.266 234.427 33.098 233.895 33.098C233.354 33.098 232.924 33.266 232.607 33.602C232.299 33.9287 232.145 34.4 232.145 35.016V39.3L230.185 39.3V31.544H232.145V32.51C232.406 32.174 232.738 31.9127 233.139 31.726C233.55 31.53 233.998 31.432 234.483 31.432Z" fill="#2155CD"/>
<path d="M315.373 20.628L312.315 27.8H311.303L314.405 20.727H310.159V19.869H315.373V20.628Z" fill="#2155CD"/>
<path d="M305.529 44.94H301.881L301.209 46.8H300.057L303.081 38.484H304.341L307.353 46.8H306.201L305.529 44.94ZM305.217 44.052L303.705 39.828L302.193 44.052H305.217ZM314.317 40.224L310.357 49.896H309.229L310.525 46.728L307.873 40.224H309.085L311.149 45.552L313.189 40.224H314.317ZM314.989 43.488C314.989 42.816 315.125 42.228 315.397 41.724C315.669 41.212 316.041 40.816 316.513 40.536C316.993 40.256 317.525 40.116 318.109 40.116C318.685 40.116 319.185 40.24 319.609 40.488C320.033 40.736 320.349 41.048 320.557 41.424V40.224H321.661V46.8H320.557V45.576C320.341 45.96 320.017 46.28 319.585 46.536C319.161 46.784 318.665 46.908 318.097 46.908C317.513 46.908 316.985 46.764 316.513 46.476C316.041 46.188 315.669 45.784 315.397 45.264C315.125 44.744 314.989 44.152 314.989 43.488ZM320.557 43.5C320.557 43.004 320.457 42.572 320.257 42.204C320.057 41.836 319.785 41.556 319.441 41.364C319.105 41.164 318.733 41.064 318.325 41.064C317.917 41.064 317.545 41.16 317.209 41.352C316.873 41.544 316.605 41.824 316.405 42.192C316.205 42.56 316.105 42.992 316.105 43.488C316.105 43.992 316.205 44.432 316.405 44.808C316.605 45.176 316.873 45.46 317.209 45.66C317.545 45.852 317.917 45.948 318.325 45.948C318.733 45.948 319.105 45.852 319.441 45.66C319.785 45.46 320.057 45.176 320.257 44.808C320.457 44.432 320.557 43.996 320.557 43.5ZM324.82 41.124V45C324.82 45.32 324.888 45.548 325.024 45.684C325.16 45.812 325.396 45.876 325.732 45.876H326.536V46.8H325.552C324.944 46.8 324.488 46.66 324.184 46.38C323.88 46.1 323.728 45.64 323.728 45V41.124H322.876V40.224H323.728V38.568H324.82V40.224H326.536V41.124H324.82Z" fill="#2155CD"/>
<path fill-rule="evenodd" clip-rule="evenodd" d="M371.551 8.32928C371.369 8.43379 371.197 8.65969 371.049 8.85233C370.974 8.95059 370.905 9.04019 370.846 9.10062C370.632 9.31742 370.419 9.53757 370.205 9.75819C369.655 10.3265 369.103 10.8979 368.52 11.4234C367.923 11.9612 367.369 12.5335 366.814 13.1074C366.536 13.395 366.257 13.683 365.972 13.9673C365.765 14.1742 365.54 14.38 365.311 14.5887C364.802 15.0538 364.278 15.5331 363.905 16.0689C362.924 17.4792 362.911 19.4301 363.665 20.9356C363.986 21.5758 364.475 22.0945 364.976 22.5947C365.112 22.731 365.253 22.8912 365.4 23.0571C365.777 23.485 366.188 23.951 366.637 24.1432C366.637 24.0389 366.644 23.9247 366.651 23.8068C366.669 23.506 366.688 23.1802 366.6 22.9266C366.491 22.6126 366.222 22.3681 365.964 22.1334C365.849 22.0289 365.736 21.9264 365.64 21.8205C365.146 21.2734 364.593 20.6442 364.348 19.9402C363.634 17.886 364.957 16.4196 366.305 15.0734L368.852 12.5294L370.956 10.4279C370.991 10.3935 371.036 10.3415 371.088 10.2812C371.216 10.1336 371.387 9.93644 371.551 9.82617V8.32928ZM371.551 27.7503C371.369 27.6204 371.185 27.4059 371.034 27.2301C370.963 27.1466 370.898 27.0718 370.846 27.019C370.642 26.8152 370.436 26.5887 370.225 26.3574C369.697 25.777 369.141 25.1662 368.52 24.8069C368.52 24.9113 368.513 25.0254 368.506 25.1433C368.488 25.4441 368.469 25.7699 368.557 26.0236C368.655 26.3071 368.898 26.5341 369.124 26.745C369.183 26.8003 369.241 26.8546 369.295 26.9084L370.735 28.3463C370.803 28.414 370.882 28.5127 370.97 28.6219C371.139 28.8332 371.34 29.0836 371.551 29.2245V27.7503ZM371.551 40.3408C371.434 40.4316 371.324 40.5582 371.223 40.6733C371.168 40.7367 371.116 40.7966 371.067 40.845L369.517 42.3935L366.083 45.8223C365.933 45.9722 365.78 46.1203 365.627 46.2686C364.994 46.8814 364.359 47.4972 363.905 48.2557C363.369 49.1521 363.204 50.1023 363.204 51.1315C363.204 51.9699 363.379 52.5798 364.311 52.0163C363.812 50.2943 364.64 48.9315 365.751 47.7026C366.521 46.851 367.343 46.0572 368.169 45.2605C368.582 44.8611 368.997 44.461 369.406 44.0526L371.178 42.2829C371.218 42.2425 371.264 42.1904 371.313 42.134C371.385 42.0505 371.466 41.9577 371.551 41.88V40.3408ZM371.551 59.6271C371.337 59.4572 371.126 59.1757 370.944 58.9334C370.821 58.7695 370.712 58.6236 370.624 58.5422C369.958 57.9247 369.327 57.2684 368.696 56.6113C368.024 55.9133 367.352 55.2144 366.637 54.5603C366.592 54.519 366.546 54.4758 366.498 54.4317C365.945 53.9148 365.261 53.2766 364.643 54.1179L370.07 59.5376C370.182 59.6492 370.295 59.7599 370.409 59.8707C370.703 60.1586 370.998 60.4473 371.27 60.7543C371.297 60.784 371.324 60.8176 371.354 60.853C371.413 60.9246 371.479 61.0038 371.551 61.0737V59.6271ZM371.925 61.2706C371.934 61.2709 371.942 61.2709 371.951 61.2706H371.925ZM360.797 39.9483C360.903 39.9543 361.005 39.9601 361.099 39.9601C360.95 40.4732 360.434 40.9307 359.974 41.3387C359.821 41.4745 359.674 41.6048 359.549 41.7298C359.078 42.2002 358.594 42.6307 357.998 42.928C356.486 43.6832 354.711 43.6787 353.236 42.7991C352.716 42.4894 352.283 42.0332 351.86 41.5876C351.728 41.448 351.596 41.3095 351.464 41.1768L348.584 38.301L346.147 35.8676C346.095 35.8149 346.02 35.751 345.936 35.6795C345.664 35.4467 345.298 35.1344 345.298 34.8722C345.298 34.574 345.765 34.1776 346.104 33.8896C346.211 33.7985 346.306 33.7183 346.369 33.6555C346.63 33.3949 346.889 33.1325 347.149 32.8699C347.939 32.0712 348.729 31.2715 349.562 30.5216C350.17 29.9745 350.805 29.3948 351.353 28.7888C351.452 28.6794 351.546 28.5611 351.64 28.4422C351.932 28.0755 352.227 27.7035 352.682 27.5721C352.704 27.6422 352.739 27.7261 352.777 27.8166C352.882 28.0661 353.008 28.366 352.94 28.5675C352.818 28.9333 352.362 29.3205 351.975 29.6493C351.823 29.7787 351.681 29.899 351.574 30.0054L348.252 33.3237L347.144 34.4297C347.123 34.4513 347.096 34.4747 347.069 34.4999C346.956 34.6016 346.812 34.7309 346.812 34.8722C346.812 35.0362 347.001 35.2006 347.147 35.3273C347.188 35.3633 347.226 35.3962 347.255 35.4252L348.805 36.9737L352.682 40.845C353.543 41.7054 354.565 42.6331 355.894 42.5041C357.013 42.3954 357.953 41.8056 358.773 41.0662C358.891 40.9599 359.006 40.832 359.124 40.7013C359.382 40.415 359.652 40.1149 359.992 39.9969C360.226 39.9158 360.522 39.9327 360.797 39.9483ZM358.508 30.0198C359.364 30.0062 360.253 29.9921 360.545 31.0009C360.259 31.0009 359.971 31.006 359.682 31.0111C358.519 31.0316 357.342 31.0523 356.226 30.7429C354.729 30.3275 353.412 28.9881 353.051 27.4615C352.953 27.047 352.978 26.6041 353.004 26.1634C353.022 25.8541 353.039 25.5458 353.014 25.2493C352.903 23.9305 352.903 22.6128 352.903 21.2835C352.903 21.2044 352.903 21.1254 352.903 21.0462V17.3962C352.903 17.3171 352.894 17.2094 352.884 17.0888C352.855 16.7431 352.816 16.2915 352.959 16.1057C353.083 15.9439 353.358 15.9521 353.545 15.9576C353.553 15.9578 353.56 15.9581 353.568 15.9583C353.847 15.966 354.124 15.9889 354.403 16.0118C354.749 16.0403 355.097 16.0689 355.451 16.0689H363.314L362.871 17.0091L360.878 17.0644H354.011V24.5857C354.011 24.7849 354.007 24.9837 354.003 25.1817C353.981 26.3425 353.959 27.4723 354.712 28.4569C355.443 29.4119 356.612 29.8923 357.777 30.0054C358.007 30.0278 358.256 30.0238 358.508 30.0198ZM367.096 48.1018C367.086 47.2753 367.076 46.4434 368.077 46.1541C368.077 46.4373 368.082 46.7231 368.088 47.0099C368.107 47.9847 368.126 48.9721 367.929 49.9148C367.83 50.3917 367.651 50.8146 367.431 51.2421C366.018 53.9867 362.769 53.8458 359.947 53.7234C359.385 53.6991 358.84 53.6754 358.33 53.6754H354.343C354.278 53.6754 354.189 53.6822 354.088 53.69C353.73 53.7173 353.221 53.7561 353.069 53.5464C352.973 53.4132 352.991 53.1667 353.005 52.9657C353.01 52.9008 353.014 52.8406 353.014 52.7906C353.014 52.4362 353.042 52.0865 353.07 51.7385C353.095 51.425 353.121 51.1128 353.125 50.7996C353.128 50.6046 353.098 50.4138 353.069 50.2246C353.041 50.0467 353.014 49.8704 353.014 49.6936C353.014 48.6384 353.042 47.5709 353.069 46.501C353.097 45.4259 353.125 44.3484 353.125 43.2783C353.442 43.3449 353.985 43.4875 354.103 43.8314C354.232 44.207 354.191 44.7444 354.154 45.2299C354.137 45.4435 354.122 45.6471 354.122 45.8223V50.4678V51.9057C354.122 51.9397 354.12 51.9761 354.119 52.0138C354.112 52.2025 354.104 52.4252 354.251 52.5509C354.363 52.6471 354.515 52.6249 354.664 52.6033C354.745 52.5915 354.825 52.5798 354.897 52.5878C355.672 52.6738 356.436 52.68 357.223 52.68H361.764L361.84 52.68C363.484 52.6803 365.057 52.6806 366.157 51.2421C366.697 50.5367 366.994 49.6906 367.08 48.8087C367.102 48.5825 367.099 48.3424 367.096 48.1018ZM368.107 40.8969C368.173 42.1445 368.245 43.4897 367.08 44.1632V40.845C367.08 40.7739 367.086 40.687 367.093 40.5925C367.116 40.2667 367.147 39.8489 366.951 39.6651C366.783 39.5074 366.52 39.5123 366.295 39.5164C366.26 39.5171 366.227 39.5177 366.194 39.5177H364.533C364.256 39.5177 363.974 39.5088 363.69 39.4999C363.119 39.4819 362.541 39.4637 361.985 39.5177C361.857 39.5302 361.733 39.5514 361.609 39.5724C361.37 39.6131 361.135 39.6532 360.878 39.6283C359.685 39.5125 358.41 39.4181 357.223 39.6651C356.499 39.8157 355.783 40.1241 355.229 40.6238C355.118 40.7241 355.007 40.8624 354.893 41.0042C354.714 41.2265 354.528 41.4573 354.325 41.5639C354.084 41.6899 353.832 41.4743 353.697 41.2874C353.434 40.9223 353.8 40.5275 354.065 40.2421C354.085 40.2212 354.104 40.201 354.122 40.1813C354.832 39.4067 356.058 38.7351 357.112 38.6328C359.04 38.4456 361.014 38.4739 362.975 38.502C363.681 38.5121 364.386 38.5222 365.086 38.5222H367.191C367.241 38.5222 367.301 38.518 367.366 38.5133C367.567 38.4991 367.814 38.4816 367.948 38.5775C368.174 38.7404 368.127 39.3542 368.094 39.7734C368.085 39.8936 368.077 39.9978 368.077 40.0707C368.077 40.3351 368.092 40.6135 368.107 40.8969ZM362.322 38.0936C362.204 38.0866 362.09 38.0798 361.985 38.0798C362.175 37.425 362.928 36.7725 363.574 36.2121C363.807 36.0102 364.026 35.8202 364.2 35.6464C364.242 35.6051 364.301 35.5544 364.367 35.4971C364.635 35.2667 365.027 34.9286 364.92 34.651C364.872 34.5259 364.725 34.4251 364.591 34.3338C364.527 34.2904 364.467 34.2492 364.422 34.2085C364.087 33.9069 363.771 33.5801 363.456 33.2543C363.298 33.0917 363.141 32.9294 362.982 32.7706C362.602 32.3913 362.227 32.0033 361.85 31.6149C361.097 30.8368 360.342 30.057 359.549 29.3418C359.344 29.1571 359.152 28.956 358.96 28.7548C358.596 28.3731 358.232 27.9909 357.777 27.7195C356.897 27.195 356.127 27.2055 355.221 27.2179C355.079 27.2198 354.935 27.2218 354.786 27.2218C354.563 27.2218 354.488 27.1197 354.454 26.9084C354.327 26.1264 354.848 26.1298 355.436 26.1336C355.478 26.1339 355.52 26.1342 355.561 26.1342C356.548 26.1342 357.474 26.3241 358.33 26.8347C359.067 27.2738 359.662 27.8835 360.256 28.4928C360.389 28.629 360.522 28.7651 360.656 28.8994L364.09 32.3282L365.64 33.8767C365.702 33.9385 365.774 34.0023 365.849 34.0685C366.047 34.244 366.263 34.4361 366.36 34.651C366.497 34.9542 365.963 35.4574 365.657 35.7451C365.607 35.7924 365.563 35.8338 365.529 35.8676C365.329 36.068 365.113 36.2532 364.898 36.4384C364.618 36.6793 364.338 36.9203 364.09 37.1949C364.016 37.2767 363.947 37.3652 363.879 37.4539C363.693 37.6956 363.507 37.9378 363.204 38.0429C362.95 38.131 362.623 38.1116 362.322 38.0936ZM368.077 23.7008V31.0009H364.865L363.425 30.9641L362.539 30.0054H365.751C365.824 30.0054 365.913 30.0116 366.009 30.0182C366.339 30.041 366.757 30.0699 366.951 29.8764C367.104 29.7233 367.094 29.4796 367.084 29.2638C367.082 29.2141 367.08 29.1659 367.08 29.1206V27.4615V22.8159C367.08 22.6142 367.084 22.4109 367.088 22.2071C367.102 21.4455 367.116 20.6755 366.932 19.9402C366.691 18.9751 366.083 18.3195 365.419 17.6174C365.178 17.363 364.943 17.0651 365.216 16.7325C365.56 16.3126 366.002 16.6808 366.305 16.9537C367.051 17.6262 367.618 18.5307 367.874 19.4977C368.148 20.5347 368.12 21.6465 368.093 22.7358C368.085 23.0603 368.077 23.3829 368.077 23.7008Z" fill="white"/>
<defs>
<clipPath id="clip0_103_282">
<rect width="45" height="173.253" fill="white" transform="translate(108.046 57.3) rotate(-90)"/>
</clipPath>
</defs>
</svg>
